<svg width="238" height="34" viewBox="0 0 238 34" fill="none" xmlns="http://www.w3.org/2000/svg">
    <path d="M0 34V7.95136H2.9656V11.927C4.9692 8.98768 7.51284 7.51801 10.5965 7.51801C11.8414 7.51043 13.0748 7.75649 14.2212 8.24114C15.3676 8.7258 16.403 9.43887 17.2641 10.3368C19.1669 12.2212 20.1183 14.7392 20.1183 17.8906C20.1183 20.9969 19.1669 23.4989 17.2641 25.3966C16.4088 26.3056 15.3756 27.0294 14.2287 27.5231C13.0817 28.0169 11.8455 28.2701 10.5965 28.2671C7.46242 28.2671 4.91878 26.8544 2.9656 24.029V34H0ZM10.0591 25.6073C10.9952 25.6308 11.9256 25.4562 12.7894 25.0951C13.6531 24.734 14.4306 24.1946 15.0708 23.5122C16.3977 22.1127 17.0611 20.2322 17.0611 17.8707C17.0611 15.5886 16.3804 13.7333 15.0191 12.3047C14.3877 11.6191 13.6184 11.0746 12.7615 10.7066C11.9047 10.3387 10.9797 10.1558 10.0472 10.1698C9.09965 10.1671 8.16184 10.3607 7.29304 10.7384C6.42424 11.1162 5.64334 11.6698 4.99972 12.3644C4.28565 13.0964 3.72713 13.965 3.35773 14.9181C2.98834 15.8712 2.81569 16.889 2.85016 17.9104C2.81588 18.9293 2.98987 19.9444 3.3615 20.8939C3.73313 21.8433 4.29461 22.7072 5.01166 23.4326C5.65808 24.1222 6.43996 24.6713 7.30843 25.0455C8.1769 25.4197 9.11331 25.6109 10.0591 25.6073Z" fill="black"/>
    <path d="M25.9739 27.8297V7.95135H28.9435V13.1396C29.6498 11.5004 30.7806 10.0788 32.2195 9.02081C33.6235 7.99666 35.3404 7.49208 37.076 7.59354V10.7741H36.8451C35.7845 10.7445 34.7299 10.9421 33.7521 11.3536C32.7744 11.765 31.8962 12.3808 31.1766 13.1595C29.6878 14.7498 28.9435 17.0026 28.9435 19.9181V27.8297H25.9739Z" fill="black"/>
    <path d="M57.656 25.2456C56.6955 26.2419 55.5382 27.0282 54.2575 27.5544C52.9768 28.0807 51.6006 28.3356 50.2161 28.3029C48.8416 28.3383 47.4748 28.086 46.2038 27.5622C44.9327 27.0384 43.7855 26.2547 42.836 25.2615C41.8778 24.2951 41.1234 23.1467 40.6174 21.884C40.1115 20.6214 39.8642 19.2702 39.8903 17.9104C39.8701 16.5509 40.1239 15.2012 40.6369 13.9417C41.1498 12.6823 41.9112 11.5387 42.8758 10.5793C44.8428 8.62202 47.5051 7.5214 50.2817 7.51768C53.0583 7.51395 55.7236 8.60743 57.6958 10.5594C58.6587 11.5233 59.4175 12.6708 59.927 13.9338C60.4365 15.1967 60.6862 16.5491 60.6614 17.9104C60.6807 19.2722 60.4245 20.6238 59.908 21.8842C59.3916 23.1447 58.6256 24.288 57.656 25.2456ZM50.2958 25.6431C51.2814 25.6717 52.2616 25.4872 53.1692 25.1023C54.0768 24.7173 54.8904 24.141 55.5542 23.4128C56.9335 21.9157 57.6734 19.9401 57.6162 17.9065C57.6596 15.8623 56.8911 13.8841 55.4786 12.4041C54.814 11.6731 54.0007 11.0924 53.0931 10.7009C52.1855 10.3094 51.2046 10.1161 50.2161 10.134C49.2317 10.1049 48.2528 10.2917 47.3485 10.6811C46.4441 11.0706 45.6362 11.6533 44.9816 12.3882C43.6136 13.8975 42.8807 15.8753 42.9355 17.9104C42.8903 19.9472 43.6529 21.9193 45.0572 23.3969C45.7204 24.1229 46.5311 24.6992 47.4352 25.0873C48.3393 25.4753 49.3159 25.6662 50.2997 25.6471" fill="black"/>
    <path d="M72.7626 28.2273C69.7668 28.1791 66.8695 27.1513 64.5146 25.3012L66.0154 23.1861C68.2764 24.8798 70.5759 25.7253 72.9138 25.7226C73.9746 25.768 75.0201 25.4572 75.8834 24.84C76.2517 24.5708 76.5492 24.2164 76.7502 23.8071C76.9513 23.3979 77.05 22.9461 77.0378 22.4904C77.0448 22.0618 76.9314 21.6398 76.7105 21.2723C76.4895 20.9048 76.1699 20.6065 75.7879 20.4111C74.6035 19.789 73.3485 19.3111 72.05 18.9878C71.0509 18.7056 70.2508 18.4511 69.6616 18.2165C68.9762 17.9372 68.3112 17.6104 67.6713 17.2385C66.9769 16.8655 66.4016 16.3047 66.0114 15.6204C65.638 14.9017 65.4531 14.1001 65.474 13.2907C65.452 12.5038 65.6127 11.7224 65.9435 11.0079C66.2743 10.2933 66.7662 9.66491 67.3807 9.17188C68.6492 8.1117 70.2747 7.58161 72.257 7.58161C74.8117 7.57897 77.3082 8.3436 79.4222 9.77619L78.0728 12.0105C76.338 10.8048 74.2864 10.1356 72.1734 10.0863C71.1777 10.0395 70.1955 10.331 69.387 10.9132C69.0527 11.1588 68.7821 11.4808 68.5979 11.8522C68.4136 12.2236 68.3211 12.6337 68.3281 13.0482C68.3273 13.4059 68.4356 13.7553 68.6386 14.05C68.8269 14.3412 69.0607 14.6003 69.3312 14.8173C69.703 15.1003 70.1114 15.3317 70.5454 15.5051C71.0987 15.7357 71.5405 15.9027 71.8749 16.0061L73.4672 16.507C74.263 16.732 75.0469 16.9974 75.8158 17.3021C76.499 17.5944 77.1567 17.9428 77.7822 18.3438C78.4395 18.739 78.9784 19.3034 79.3426 19.9778C79.6972 20.6867 79.8721 21.4716 79.8521 22.2638C79.8893 23.0979 79.7284 23.9289 79.3825 24.689C79.0366 25.4491 78.5155 26.1166 77.8618 26.637C76.5349 27.6972 74.8392 28.2273 72.7745 28.2273" fill="black"/>
    <path d="M92.0289 28.1876C90.3093 28.1876 88.9413 27.733 87.9249 26.8239C86.9085 25.9148 86.4016 24.4968 86.4043 22.5699V10.5594H83.6178V7.95136H86.4043V1.93616H89.3699V7.95136H95.6911V10.5674H89.3699V22.1843C89.3699 24.3921 90.4884 25.4947 92.7256 25.4921C93.7292 25.4854 94.7179 25.2488 95.6155 24.8003V27.3407C94.5088 27.9119 93.2785 28.2027 92.0329 28.1876" fill="black"/>
    <path d="M121.808 25.5C120.848 26.4963 119.69 27.2828 118.41 27.8097C117.129 28.3366 115.753 28.5925 114.368 28.5613C112.994 28.5967 111.627 28.3445 110.356 27.8207C109.085 27.2969 107.938 26.5131 106.988 25.5199C106.03 24.5536 105.275 23.4052 104.768 22.1426C104.262 20.8801 104.013 19.5288 104.039 18.1688C104.018 16.8084 104.272 15.4577 104.786 14.1974C105.3 12.9372 106.062 11.7932 107.028 10.8337C108.998 8.88032 111.66 7.78404 114.436 7.78404C117.212 7.78404 119.875 8.88032 121.844 10.8337C122.808 11.7974 123.567 12.9448 124.077 14.2077C124.587 15.4706 124.838 16.8232 124.814 18.1848C124.831 19.5432 124.573 20.8912 124.057 22.1481C123.541 23.405 122.776 24.545 121.808 25.5ZM114.448 25.8976C115.434 25.9265 116.415 25.7417 117.322 25.356C118.23 24.9703 119.044 24.3928 119.706 23.6632C121.084 22.1669 121.824 20.1931 121.768 18.1609C121.811 16.1157 121.043 14.1365 119.631 12.6546C118.965 11.9246 118.152 11.3446 117.245 10.9532C116.337 10.5617 115.357 10.3679 114.368 10.3845C113.383 10.3556 112.404 10.542 111.498 10.9307C110.593 11.3194 109.783 11.901 109.126 12.6347C107.759 14.1491 107.026 16.1303 107.08 18.1688C107.035 20.2056 107.797 22.1777 109.202 23.6553C109.865 24.3813 110.675 24.9577 111.58 25.3457C112.484 25.7338 113.46 25.9246 114.444 25.9055" fill="black"/>
    <path d="M151.094 28.1001V8.19785H154.052V11.6646C155.615 9.0725 157.888 7.77643 160.871 7.77643C163.235 7.77643 165.093 8.50133 166.444 9.95112C167.794 11.4009 168.475 13.3318 168.486 15.7437V28.1001H165.52V16.4752C165.52 14.604 165.038 13.1343 164.075 12.0662C163.112 11.0047 161.754 10.4759 160.007 10.4759C159.213 10.4535 158.423 10.596 157.687 10.8944C156.951 11.1927 156.285 11.6405 155.732 12.2093C155.166 12.8078 154.726 13.5132 154.438 14.2841C154.149 15.0549 154.018 15.8756 154.052 16.6978V28.1001H151.094Z" fill="black"/>
    <path d="M178.457 0H175.492V28.1001H178.457V0Z" fill="black"/>
    <path d="M185.817 0.576477H189.209V3.84846H185.817V0.576477ZM186.012 8.19785H188.978V28.1001H186.012V8.19785Z" fill="black"/>
    <path d="M196.247 28.1001V8.19785H199.216V11.6646C200.779 9.0725 203.052 7.77643 206.035 7.77643C208.4 7.77643 210.257 8.50133 211.608 9.95112C212.959 11.4009 213.65 13.3318 213.682 15.7437V28.1001H210.717V16.4752C210.717 14.604 210.234 13.1343 209.268 12.0662C208.308 11.0047 206.951 10.4759 205.203 10.4759C204.409 10.4534 203.618 10.5959 202.882 10.8942C202.145 11.1926 201.478 11.6404 200.924 12.2093C200.356 12.8068 199.914 13.5118 199.624 14.2827C199.333 15.0536 199.2 15.8748 199.232 16.6978V28.1001H196.247Z" fill="black"/>
    <path d="M222.161 19.3616C222.279 21.2051 223.1 22.9334 224.454 24.192C225.74 25.3708 227.43 26.0113 229.175 25.9811C231.563 25.9811 233.657 25.0441 235.456 23.1703L237.307 24.8281C236.298 26.0143 235.039 26.9637 233.62 27.6089C232.202 28.2541 230.658 28.5793 229.099 28.5613C227.783 28.5897 226.476 28.3461 225.259 27.846C224.041 27.3459 222.941 26.6 222.026 25.6551C220.112 23.7176 219.156 21.2222 219.156 18.1689C219.087 15.4526 220.066 12.814 221.89 10.7979C222.737 9.82706 223.787 9.05339 224.966 8.53137C226.145 8.00935 227.424 7.75166 228.713 7.77643C231.569 7.77643 233.824 8.77697 235.48 10.7781C237.136 12.7792 237.971 15.2971 237.984 18.3319C237.984 18.7294 237.984 19.0634 237.948 19.3695L222.161 19.3616ZM222.161 16.9761H234.995C234.882 15.217 234.214 13.5386 233.088 12.1815C232.537 11.5502 231.851 11.0511 231.081 10.7214C230.31 10.3917 229.475 10.2398 228.637 10.2771C227.82 10.268 227.009 10.4312 226.259 10.7559C225.509 11.0806 224.835 11.5595 224.283 12.1616C223.049 13.4796 222.301 15.1774 222.161 16.9761Z" fill="black"/>
    <path d="M132.21 33.0737H113.752C109.828 33.0684 106.068 31.5085 103.295 28.7363C100.522 25.9642 98.9644 22.2064 98.9634 18.2881V18.0178C98.9718 14.1047 100.533 10.3545 103.305 7.58899C106.077 4.82349 109.834 3.26824 113.752 3.26404H132.21C136.131 3.2672 139.891 4.82417 142.665 7.59321C145.438 10.3623 146.998 14.1171 147.002 18.0337V18.2881C147.001 22.2071 145.443 25.9655 142.669 28.7377C139.896 31.51 136.134 33.0695 132.21 33.0737ZM113.752 6.05894C110.573 6.0621 107.525 7.32473 105.277 9.56975C103.029 11.8148 101.765 14.8588 101.762 18.0337V18.2881C101.765 21.4631 103.029 24.507 105.277 26.7521C107.525 28.9971 110.573 30.2597 113.752 30.2629H132.21C135.389 30.2597 138.437 28.9972 140.686 26.7523C142.934 24.5074 144.199 21.4634 144.204 18.2881V18.0178C144.199 14.8425 142.934 11.7985 140.686 9.5536C138.437 7.3087 135.389 6.04619 132.21 6.04304L113.752 6.05894Z" fill="#41B64B"/>
</svg>
