<svg width="238" height="34" viewBox="0 0 238 34" fill="none" xmlns="http://www.w3.org/2000/svg">
    <path d="M0 34V7.95136H2.9656V11.927C4.9692 8.98768 7.51284 7.51801 10.5965 7.51801C11.8414 7.51043 13.0748 7.75649 14.2212 8.24114C15.3676 8.7258 16.403 9.43887 17.2641 10.3368C19.1669 12.2212 20.1183 14.7392 20.1183 17.8906C20.1183 20.9969 19.1669 23.4989 17.2641 25.3966C16.4088 26.3056 15.3756 27.0294 14.2287 27.5231C13.0817 28.0169 11.8455 28.2701 10.5965 28.2671C7.46242 28.2671 4.91878 26.8544 2.9656 24.029V34H0ZM10.0591 25.6073C10.9952 25.6308 11.9256 25.4562 12.7894 25.0951C13.6531 24.734 14.4306 24.1946 15.0708 23.5122C16.3977 22.1127 17.0611 20.2322 17.0611 17.8707C17.0611 15.5886 16.3804 13.7333 15.0191 12.3047C14.3877 11.6191 13.6184 11.0746 12.7615 10.7066C11.9047 10.3387 10.9797 10.1558 10.0472 10.1698C9.09965 10.1671 8.16184 10.3607 7.29304 10.7384C6.42424 11.1162 5.64334 11.6698 4.99972 12.3644C4.28565 13.0964 3.72713 13.965 3.35773 14.9181C2.98834 15.8712 2.81569 16.889 2.85016 17.9104C2.81588 18.9293 2.98987 19.9444 3.3615 20.8939C3.73313 21.8433 4.29461 22.7072 5.01166 23.4326C5.65808 24.1222 6.43996 24.6713 7.30843 25.0455C8.1769 25.4197 9.11331 25.6109 10.0591 25.6073Z" fill="black"/>
    <path d="M25.9736 27.8297V7.95135H28.9432V13.1396C29.6496 11.5004 30.7804 10.0788 32.2193 9.02081C33.6232 7.99666 35.3401 7.49208 37.0757 7.59354V10.7741H36.8448C35.7843 10.7445 34.7296 10.9421 33.7519 11.3536C32.7742 11.765 31.896 12.3808 31.1764 13.1595C29.6876 14.7498 28.9432 17.0026 28.9432 19.9181V27.8297H25.9736Z" fill="black"/>
    <path d="M57.6558 25.2456C56.6952 26.2419 55.538 27.0282 54.2573 27.5544C52.9766 28.0807 51.6004 28.3356 50.2159 28.3029C48.8414 28.3383 47.4746 28.086 46.2035 27.5622C44.9325 27.0384 43.7853 26.2547 42.8357 25.2615C41.8775 24.2951 41.1231 23.1467 40.6172 21.884C40.1112 20.6214 39.864 19.2702 39.8901 17.9104C39.8698 16.5509 40.1237 15.2012 40.6366 13.9417C41.1495 12.6823 41.9109 11.5387 42.8756 10.5793C44.8425 8.62202 47.5049 7.5214 50.2815 7.51768C53.058 7.51395 55.7233 8.60743 57.6956 10.5594C58.6585 11.5233 59.4173 12.6708 59.9267 13.9338C60.4362 15.1967 60.686 16.5491 60.6612 17.9104C60.6805 19.2722 60.4242 20.6238 59.9078 21.8842C59.3914 23.1447 58.6254 24.288 57.6558 25.2456ZM50.2955 25.6431C51.2811 25.6717 52.2613 25.4872 53.1689 25.1023C54.0765 24.7173 54.8901 24.141 55.554 23.4128C56.9333 21.9157 57.6731 19.9401 57.616 17.9065C57.6594 15.8623 56.8909 13.8841 55.4783 12.4041C54.8137 11.6731 54.0004 11.0924 53.0928 10.7009C52.1852 10.3094 51.2044 10.1161 50.2159 10.134C49.2315 10.1049 48.2526 10.2917 47.3482 10.6811C46.4438 11.0706 45.6359 11.6533 44.9813 12.3882C43.6133 13.8975 42.8805 15.8753 42.9353 17.9104C42.89 19.9472 43.6527 21.9193 45.057 23.3969C45.7202 24.1229 46.5309 24.6992 47.435 25.0873C48.339 25.4753 49.3156 25.6662 50.2995 25.6471" fill="black"/>
    <path d="M72.7626 28.2273C69.7668 28.1791 66.8695 27.1513 64.5146 25.3012L66.0154 23.1861C68.2764 24.8798 70.5759 25.7253 72.9138 25.7226C73.9746 25.768 75.0201 25.4572 75.8834 24.84C76.2517 24.5708 76.5492 24.2164 76.7502 23.8071C76.9513 23.3979 77.05 22.9461 77.0378 22.4904C77.0448 22.0618 76.9314 21.6398 76.7105 21.2723C76.4895 20.9048 76.1699 20.6065 75.7879 20.4111C74.6035 19.789 73.3485 19.3111 72.05 18.9878C71.0509 18.7056 70.2508 18.4511 69.6616 18.2165C68.9762 17.9372 68.3112 17.6104 67.6713 17.2385C66.9769 16.8655 66.4016 16.3047 66.0114 15.6204C65.638 14.9017 65.4531 14.1001 65.474 13.2907C65.452 12.5038 65.6127 11.7224 65.9435 11.0079C66.2743 10.2933 66.7662 9.66491 67.3807 9.17188C68.6492 8.1117 70.2747 7.58161 72.257 7.58161C74.8117 7.57897 77.3082 8.3436 79.4222 9.77619L78.0728 12.0105C76.338 10.8048 74.2864 10.1356 72.1734 10.0863C71.1777 10.0395 70.1955 10.331 69.387 10.9132C69.0527 11.1588 68.7821 11.4808 68.5979 11.8522C68.4136 12.2236 68.3211 12.6337 68.3281 13.0482C68.3273 13.4059 68.4356 13.7553 68.6386 14.05C68.8269 14.3412 69.0607 14.6003 69.3312 14.8173C69.703 15.1003 70.1114 15.3317 70.5454 15.5051C71.0987 15.7357 71.5405 15.9027 71.8749 16.0061L73.4672 16.507C74.263 16.732 75.0469 16.9974 75.8158 17.3021C76.499 17.5944 77.1567 17.9428 77.7822 18.3438C78.4395 18.739 78.9784 19.3034 79.3426 19.9778C79.6972 20.6867 79.8721 21.4716 79.8521 22.2638C79.8893 23.0979 79.7284 23.9289 79.3825 24.689C79.0366 25.4491 78.5155 26.1166 77.8618 26.637C76.5349 27.6972 74.8392 28.2273 72.7745 28.2273" fill="black"/>
    <path d="M92.0288 28.1876C90.3092 28.1876 88.9412 27.733 87.9248 26.8239C86.9084 25.9148 86.4015 24.4968 86.4041 22.5699V10.5594H83.6177V7.95136H86.4041V1.93616H89.3697V7.95136H95.691V10.5674H89.3697V22.1843C89.3697 24.3921 90.4883 25.4947 92.7254 25.4921C93.7291 25.4854 94.7178 25.2488 95.6154 24.8003V27.3407C94.5087 27.9119 93.2784 28.2027 92.0328 28.1876" fill="black"/>
    <path d="M121.809 25.5C120.848 26.4963 119.691 27.2828 118.41 27.8097C117.129 28.3366 115.753 28.5925 114.369 28.5613C112.994 28.5967 111.627 28.3445 110.356 27.8207C109.085 27.2969 107.938 26.5131 106.989 25.5199C106.03 24.5536 105.275 23.4052 104.768 22.1426C104.262 20.8801 104.014 19.5288 104.039 18.1688C104.018 16.8084 104.273 15.4577 104.786 14.1974C105.3 12.9372 106.062 11.7932 107.028 10.8337C108.998 8.88032 111.661 7.78404 114.436 7.78404C117.212 7.78404 119.875 8.88032 121.844 10.8337C122.808 11.7974 123.567 12.9448 124.077 14.2077C124.588 15.4706 124.838 16.8232 124.814 18.1848C124.831 19.5432 124.574 20.8912 124.057 22.1481C123.541 23.405 122.776 24.545 121.809 25.5ZM114.448 25.8976C115.434 25.9265 116.415 25.7417 117.323 25.356C118.23 24.9703 119.044 24.3928 119.707 23.6632C121.085 22.1669 121.824 20.1931 121.769 18.1609C121.811 16.1157 121.043 14.1365 119.631 12.6546C118.966 11.9246 118.152 11.3446 117.245 10.9532C116.337 10.5617 115.357 10.3679 114.369 10.3845C113.383 10.3556 112.404 10.542 111.498 10.9307C110.593 11.3194 109.783 11.901 109.126 12.6347C107.759 14.1491 107.026 16.1303 107.08 18.1688C107.035 20.2056 107.797 22.1777 109.202 23.6553C109.865 24.3813 110.676 24.9577 111.58 25.3457C112.484 25.7338 113.46 25.9246 114.444 25.9055" fill="black"/>
    <path d="M151.094 28.1001V8.19785H154.052V11.6646C155.615 9.0725 157.888 7.77643 160.871 7.77643C163.235 7.77643 165.093 8.50133 166.444 9.95112C167.794 11.4009 168.475 13.3318 168.486 15.7437V28.1001H165.52V16.4752C165.52 14.604 165.038 13.1343 164.075 12.0662C163.112 11.0047 161.754 10.4759 160.007 10.4759C159.213 10.4535 158.423 10.596 157.687 10.8944C156.951 11.1927 156.285 11.6405 155.732 12.2093C155.166 12.8078 154.726 13.5132 154.438 14.2841C154.149 15.0549 154.018 15.8756 154.052 16.6978V28.1001H151.094Z" fill="black"/>
    <path d="M178.457 0H175.492V28.1001H178.457V0Z" fill="black"/>
    <path d="M185.817 0.576477H189.209V3.84846H185.817V0.576477ZM186.012 8.19785H188.978V28.1001H186.012V8.19785Z" fill="black"/>
    <path d="M196.247 28.1001V8.19785H199.216V11.6646C200.779 9.0725 203.052 7.77643 206.035 7.77643C208.4 7.77643 210.257 8.50133 211.608 9.95112C212.959 11.4009 213.65 13.3318 213.682 15.7437V28.1001H210.716V16.4752C210.716 14.604 210.233 13.1343 209.267 12.0662C208.308 11.0047 206.951 10.4759 205.203 10.4759C204.409 10.4534 203.618 10.5959 202.881 10.8942C202.145 11.1926 201.478 11.6404 200.924 12.2093C200.356 12.8068 199.914 13.5118 199.623 14.2827C199.333 15.0536 199.2 15.8748 199.232 16.6978V28.1001H196.247Z" fill="black"/>
    <path d="M222.161 19.3616C222.28 21.2051 223.1 22.9334 224.454 24.192C225.74 25.3708 227.43 26.0113 229.175 25.9811C231.563 25.9811 233.657 25.0441 235.456 23.1703L237.308 24.8281C236.298 26.0143 235.039 26.9637 233.62 27.6089C232.202 28.2541 230.658 28.5793 229.099 28.5613C227.783 28.5897 226.476 28.3461 225.259 27.846C224.041 27.3459 222.941 26.6 222.026 25.6551C220.112 23.7176 219.156 21.2222 219.156 18.1689C219.088 15.4526 220.067 12.814 221.89 10.7979C222.738 9.82706 223.787 9.05339 224.966 8.53137C226.145 8.00935 227.424 7.75166 228.713 7.77643C231.569 7.77643 233.824 8.77697 235.48 10.7781C237.136 12.7792 237.971 15.2971 237.984 18.3319C237.984 18.7294 237.984 19.0634 237.948 19.3695L222.161 19.3616ZM222.161 16.9761H234.995C234.882 15.217 234.214 13.5386 233.088 12.1815C232.537 11.5502 231.851 11.0511 231.081 10.7214C230.31 10.3917 229.475 10.2398 228.638 10.2771C227.82 10.268 227.009 10.4312 226.259 10.7559C225.509 11.0806 224.835 11.5595 224.283 12.1616C223.049 13.4796 222.301 15.1774 222.161 16.9761Z" fill="black"/>
    <path d="M132.21 33.0737H113.752C109.828 33.0684 106.068 31.5085 103.295 28.7363C100.522 25.9642 98.9644 22.2064 98.9634 18.2881V18.0178C98.9718 14.1047 100.533 10.3545 103.305 7.58899C106.077 4.82349 109.834 3.26824 113.752 3.26404H132.21C136.131 3.2672 139.891 4.82417 142.665 7.59321C145.438 10.3623 146.998 14.1171 147.002 18.0337V18.2881C147.001 22.2071 145.443 25.9655 142.669 28.7377C139.896 31.51 136.134 33.0695 132.21 33.0737ZM113.752 6.05894C110.573 6.0621 107.525 7.32473 105.277 9.56975C103.029 11.8148 101.765 14.8588 101.762 18.0337V18.2881C101.765 21.4631 103.029 24.507 105.277 26.7521C107.525 28.9971 110.573 30.2597 113.752 30.2629H132.21C135.389 30.2597 138.437 28.9972 140.686 26.7523C142.934 24.5074 144.199 21.4634 144.204 18.2881V18.0178C144.199 14.8425 142.934 11.7985 140.686 9.5536C138.437 7.3087 135.389 6.04619 132.21 6.04304L113.752 6.05894Z" fill="#43AAE3"/>
</svg>
