<svg width="210" height="30" viewBox="0 0 210 30" fill="none" xmlns="http://www.w3.org/2000/svg">
    <path d="M0 29.9999V7.01582H2.6167V10.5238C4.38459 7.93022 6.62898 6.63345 9.34988 6.63345C10.4483 6.62676 11.5365 6.84387 12.5481 7.27151C13.5597 7.69915 14.4733 8.32833 15.2331 9.12059C16.912 10.7834 17.7514 13.0051 17.7514 15.7857C17.7514 18.5266 16.912 20.7342 15.2331 22.4087C14.4784 23.2107 13.5667 23.8494 12.5547 24.285C11.5427 24.7207 10.4519 24.9441 9.34988 24.9414C6.58449 24.9414 4.3401 23.695 2.6167 21.202V29.9999H0ZM8.87571 22.5946C9.70164 22.6153 10.5226 22.4613 11.2847 22.1427C12.0468 21.8241 12.7329 21.3481 13.2978 20.7459C14.4685 19.5111 15.0539 17.8519 15.0539 15.7682C15.0539 13.7546 14.4533 12.1175 13.2521 10.857C12.695 10.2521 12.0162 9.77158 11.2602 9.44695C10.5042 9.12231 9.68801 8.96089 8.86518 8.97325C8.0291 8.97085 7.20162 9.1417 6.43503 9.475C5.66844 9.80831 4.97942 10.2968 4.41151 10.9096C3.78145 11.5555 3.28864 12.322 2.9627 13.163C2.63677 14.0039 2.48443 14.902 2.51484 15.8032C2.4846 16.7022 2.63812 17.5979 2.96603 18.4357C3.29394 19.2734 3.78936 20.0356 4.42205 20.6758C4.99243 21.2843 5.68232 21.7687 6.44862 22.0989C7.21492 22.429 8.04116 22.5978 8.87571 22.5946Z" fill="#C4C4C4"/>
    <path d="M22.9181 24.5557V7.01597H25.5383V11.5938C26.1616 10.1475 27.1593 8.89311 28.429 7.9596C29.6677 7.05595 31.1826 6.61073 32.714 6.70025V9.50661H32.5103C31.5745 9.48054 30.644 9.65489 29.7813 10.0179C28.9186 10.381 28.1437 10.9243 27.5087 11.6114C26.1951 13.0146 25.5383 15.0024 25.5383 17.5749V24.5557H22.9181Z" fill="#C4C4C4"/>
    <path d="M50.8729 22.2756C50.0254 23.1547 49.0043 23.8484 47.8743 24.3128C46.7442 24.7772 45.53 25.002 44.3084 24.9732C43.0955 25.0045 41.8896 24.7819 40.7681 24.3197C39.6465 23.8575 38.6343 23.166 37.7965 22.2896C36.951 21.4369 36.2854 20.4236 35.8389 19.3095C35.3925 18.1954 35.1743 17.0032 35.1973 15.8034C35.1795 14.6038 35.4035 13.4129 35.8561 12.3016C36.3086 11.1903 36.9805 10.1813 37.8316 9.33472C39.5671 7.60773 41.9163 6.6366 44.3662 6.63331C46.8161 6.63002 49.1679 7.59485 50.9081 9.31718C51.7577 10.1677 52.4272 11.1802 52.8768 12.2946C53.3263 13.4089 53.5467 14.6022 53.5248 15.8034C53.5418 17.0049 53.3157 18.1975 52.86 19.3097C52.4044 20.4218 51.7285 21.4306 50.8729 22.2756ZM44.3786 22.6263C45.2483 22.6516 46.1132 22.4888 46.914 22.1491C47.7148 21.8094 48.4327 21.3009 49.0184 20.6584C50.2355 19.3375 50.8883 17.5943 50.8378 15.7999C50.8762 13.9962 50.198 12.2507 48.9517 10.9449C48.3653 10.2999 47.6476 9.78749 46.8468 9.44203C46.046 9.09658 45.1805 8.92603 44.3084 8.94183C43.4397 8.91616 42.576 9.08095 41.7781 9.42459C40.9801 9.76823 40.2672 10.2824 39.6896 10.9308C38.4826 12.2625 37.836 14.0077 37.8843 15.8034C37.8444 17.6005 38.5173 19.3406 39.7564 20.6444C40.3415 21.285 41.0569 21.7935 41.8546 22.1359C42.6523 22.4783 43.514 22.6467 44.3821 22.6299" fill="#C4C4C4"/>
    <path d="M64.2023 24.9062C61.559 24.8637 59.0025 23.9568 56.9247 22.3244L58.2488 20.4582C60.2438 21.9526 62.2728 22.6986 64.3357 22.6962C65.2717 22.7362 66.1942 22.4621 66.956 21.9175C67.2809 21.6799 67.5434 21.3672 67.7208 21.0061C67.8982 20.645 67.9853 20.2463 67.9745 19.8443C67.9807 19.4661 67.8806 19.0938 67.6857 18.7695C67.4908 18.4452 67.2088 18.182 66.8717 18.0096C65.8266 17.4607 64.7193 17.039 63.5736 16.7538C62.692 16.5047 61.986 16.2802 61.4661 16.0732C60.8614 15.8267 60.2746 15.5384 59.71 15.2103C59.0972 14.8811 58.5897 14.3863 58.2453 13.7825C57.9159 13.1484 57.7527 12.4411 57.7712 11.7269C57.7518 11.0325 57.8936 10.3431 58.1854 9.71262C58.4773 9.08212 58.9114 8.52766 59.4536 8.09264C60.5728 7.15719 62.0071 6.68946 63.7562 6.68946C66.0104 6.68713 68.2131 7.3618 70.0784 8.62585L68.8877 10.5973C67.3571 9.53342 65.5468 8.94294 63.6824 8.89947C62.8039 8.85822 61.9372 9.11541 61.2238 9.62912C60.9288 9.84582 60.6901 10.1299 60.5275 10.4576C60.365 10.7854 60.2834 11.1472 60.2895 11.5129C60.2888 11.8285 60.3844 12.1369 60.5635 12.3969C60.7296 12.6538 60.9359 12.8824 61.1746 13.0739C61.5026 13.3236 61.863 13.5278 62.2459 13.6808C62.7341 13.8843 63.124 14.0316 63.419 14.1228L64.824 14.5648C65.5262 14.7633 66.2179 14.9975 66.8962 15.2664C67.4991 15.5243 68.0794 15.8317 68.6313 16.1855C69.2113 16.5342 69.6868 17.0322 70.0082 17.6273C70.321 18.2527 70.4754 18.9454 70.4578 19.6443C70.4906 20.3803 70.3486 21.1135 70.0434 21.7842C69.7381 22.4549 69.2784 23.0439 68.7016 23.5031C67.5308 24.4385 66.0345 24.9062 64.2128 24.9062" fill="#C4C4C4"/>
    <path d="M81.2021 24.8715C79.6848 24.8715 78.4777 24.4704 77.5809 23.6683C76.6841 22.8661 76.2368 21.615 76.2392 19.9148V9.31724H73.7805V7.01603H76.2392V1.7085H78.8559V7.01603H84.4335V9.32426H78.8559V19.5745C78.8559 21.5226 79.8428 22.4954 81.8168 22.4931C82.7023 22.4873 83.5747 22.2784 84.3667 21.8827V24.1243C83.3902 24.6283 82.3047 24.8848 81.2056 24.8715" fill="#C4C4C4"/>
    <path d="M107.478 22.4999C106.63 23.379 105.609 24.0729 104.479 24.5378C103.349 25.0028 102.135 25.2286 100.913 25.201C99.7005 25.2323 98.4945 25.0097 97.373 24.5475C96.2515 24.0854 95.2393 23.3938 94.4014 22.5174C93.5556 21.6648 92.8896 20.6516 92.4425 19.5375C91.9955 18.4235 91.7766 17.2312 91.7988 16.0312C91.7807 14.8308 92.005 13.639 92.4582 12.527C92.9113 11.415 93.5842 10.4056 94.4365 9.55906C96.1743 7.83547 98.524 6.86816 100.973 6.86816C103.422 6.86816 105.772 7.83547 107.51 9.55906C108.36 10.4094 109.03 11.4218 109.48 12.5361C109.93 13.6505 110.151 14.8439 110.13 16.0453C110.145 17.2439 109.918 18.4333 109.462 19.5424C109.006 20.6514 108.332 21.6573 107.478 22.4999ZM100.984 22.8507C101.854 22.8762 102.719 22.7132 103.52 22.3728C104.321 22.0325 105.038 21.523 105.623 20.8792C106.839 19.559 107.492 17.8173 107.443 16.0242C107.48 14.2196 106.803 12.4732 105.557 11.1657C104.97 10.5216 104.252 10.0098 103.451 9.66444C102.65 9.31905 101.785 9.148 100.913 9.16266C100.044 9.1372 99.1797 9.30169 98.3807 9.64465C97.5816 9.9876 96.8673 10.5007 96.2876 11.1482C95.0811 12.4844 94.4348 14.2326 94.4822 16.0312C94.4423 17.8284 95.1152 19.5684 96.3543 20.8722C96.9395 21.5128 97.6548 22.0214 98.4525 22.3638C99.2502 22.7062 100.112 22.8746 100.98 22.8577" fill="#C4C4C4"/>
    <path d="M133.318 24.794V7.23317H135.928V10.2921C137.307 8.00492 139.313 6.86133 141.945 6.86133C144.031 6.86133 145.67 7.50094 146.862 8.78018C148.054 10.0594 148.654 11.7631 148.664 13.8913V24.794H146.047V14.5367C146.047 12.8856 145.622 11.5889 144.772 10.6464C143.922 9.70978 142.724 9.24323 141.182 9.24323C140.482 9.22344 139.785 9.34916 139.136 9.61244C138.486 9.87572 137.899 10.2708 137.41 10.7727C136.911 11.3008 136.523 11.9232 136.268 12.6034C136.014 13.2835 135.898 14.0077 135.928 14.7332V24.794H133.318Z" fill="#C4C4C4"/>
    <path d="M157.462 0H154.846V24.7942H157.462V0Z" fill="#C4C4C4"/>
    <path d="M163.957 0.508789H166.949V3.39583H163.957V0.508789ZM164.129 7.23353H166.745V24.7943H164.129V7.23353Z" fill="#C4C4C4"/>
    <path d="M173.159 24.794V7.23317H175.779V10.2921C177.158 8.00492 179.164 6.86133 181.796 6.86133C183.882 6.86133 185.521 7.50094 186.713 8.78018C187.905 10.0594 188.515 11.7631 188.543 13.8913V24.794H185.926V14.5367C185.926 12.8856 185.5 11.5889 184.648 10.6464C183.801 9.70978 182.604 9.24323 181.062 9.24323C180.361 9.22337 179.663 9.34906 179.013 9.61233C178.363 9.87559 177.775 10.2707 177.286 10.7727C176.785 11.2999 176.395 11.922 176.139 12.6022C175.882 13.2824 175.765 14.0069 175.793 14.7332V24.794H173.159Z" fill="#C4C4C4"/>
    <path d="M196.024 17.084C196.129 18.7106 196.853 20.2356 198.048 21.3461C199.182 22.3863 200.673 22.9514 202.213 22.9247C204.321 22.9247 206.168 22.098 207.756 20.4446L209.389 21.9074C208.498 22.954 207.387 23.7917 206.135 24.361C204.884 24.9303 203.522 25.2172 202.146 25.2014C200.985 25.2264 199.832 25.0115 198.758 24.5703C197.683 24.129 196.712 23.4708 195.905 22.637C194.217 20.9275 193.373 18.7257 193.373 16.0316C193.313 13.6349 194.176 11.3067 195.786 9.52783C196.533 8.67117 197.459 7.98852 198.5 7.52792C199.54 7.06731 200.668 6.83993 201.806 6.86179C204.325 6.86179 206.316 7.74463 207.777 9.51029C209.238 11.276 209.974 13.4977 209.986 16.1754C209.986 16.5262 209.986 16.8209 209.954 17.091L196.024 17.084ZM196.024 14.9792H207.348C207.249 13.427 206.66 11.946 205.666 10.7486C205.18 10.1916 204.575 9.75122 203.895 9.46029C203.215 9.16937 202.478 9.03537 201.739 9.06829C201.017 9.06027 200.302 9.2042 199.64 9.4907C198.978 9.7772 198.384 10.1998 197.896 10.7311C196.808 11.894 196.148 13.392 196.024 14.9792Z" fill="#C4C4C4"/>
    <path d="M116.656 29.1825H100.369C96.9073 29.1779 93.589 27.8014 91.1425 25.3554C88.6961 22.9094 87.3215 19.5937 87.3206 16.1364V15.8979C87.328 12.4452 88.7056 9.13616 91.1514 6.69601C93.5972 4.25587 96.9119 2.88359 100.369 2.87988H116.656C120.116 2.88267 123.433 4.25647 125.88 6.69974C128.327 9.14302 129.704 12.4561 129.708 15.9119V16.1364C129.707 19.5944 128.332 22.9105 125.884 25.3566C123.437 27.8028 120.118 29.1788 116.656 29.1825ZM100.369 5.34597C97.564 5.34876 94.8748 6.46285 92.8914 8.44374C90.908 10.4246 89.7925 13.1105 89.7897 15.9119V16.1364C89.7925 18.9378 90.908 21.6237 92.8914 23.6046C94.8748 25.5855 97.564 26.6996 100.369 26.7024H116.656C119.461 26.6996 122.151 25.5856 124.134 23.6048C126.118 21.624 127.235 18.9382 127.238 16.1364V15.8979C127.235 13.0962 126.118 10.4103 124.134 8.4295C122.151 6.4487 119.461 5.33472 116.656 5.33194L100.369 5.34597Z" fill="#C4C4C4"/>
</svg>
