<svg width="130" height="50" viewBox="0 0 130 50" fill="none" xmlns="http://www.w3.org/2000/svg">
    <path d="M5.52054 16.2979C1.89617 20.0933 -0.0862922 25.1643 0.00288328 30.4116C0.0920588 35.6589 2.24569 40.6596 5.99693 44.3297C6.53446 41.2109 6.8861 38.0628 7.05001 34.9022C7.50132 28.5211 5.65844 22.2026 5.52054 16.2979Z" fill="#41B64B"/>
    <path d="M32.2361 28.2954C26.9206 29.3359 26.9457 33.8992 26.4693 38.3247C26.0806 41.9728 25.7923 45.7338 25.6418 49.1187C29.7401 47.8906 33.3352 45.3781 35.8971 41.9517C38.459 38.5253 39.8521 34.3663 39.8709 30.0881C39.8709 29.6242 39.8709 29.1604 39.8709 28.7091L38.8931 28.5837C36.7104 28.0808 34.454 27.9831 32.2361 28.2954Z" fill="#41B64B"/>
    <path d="M34.7058 20.6229C35.6041 20.512 36.5085 20.4576 37.4137 20.4599C36.628 19.0373 35.6724 17.7155 34.5679 16.5234C34.915 17.8631 34.9621 19.2629 34.7058 20.6229Z" fill="#41B64B"/>
    <path d="M30.4934 27.0919C32.9342 26.6945 35.4265 26.737 37.8524 27.2172C38.4139 27.2844 38.9796 27.3096 39.5448 27.2925C41.1746 27.2172 41.5632 26.5528 41.814 25.2991C42.1399 23.707 41.814 21.9895 38.053 21.4379H37.8649C36.6092 21.2499 35.3281 21.3268 34.1039 21.6635C31.6844 27.1295 25.3283 26.2895 25.3283 26.2895C25.3283 26.2895 24.8644 25.951 25.3283 25.951C29.6284 25.951 32.5494 23.4437 32.7751 19.4195C32.6748 16.3355 32.3864 15.6585 32.3237 14.4675C32.3237 14.3171 32.3237 14.1666 32.3237 13.9911C32.3237 11.559 33.8281 10.3931 33.7655 7.52221C33.1512 7.52221 32.5118 11.0325 27.9108 10.4934C24.9772 9.91469 22.0141 9.49618 19.0349 9.23972C17.2144 9.3898 15.4333 9.85204 13.7695 10.6062C13.7695 10.6062 15.6124 4.75161 13.6567 2.29443C13.0926 5.01488 9.63245 7.44699 8.16566 11.2832C7.90436 12.2073 7.71573 13.1504 7.60151 14.1039C7.36902 17.4067 7.64383 20.7256 8.4164 23.9452C8.4164 23.9452 13.8573 20.5478 18.3329 20.3973C24.6889 20.1842 24.3881 23.4688 24.2502 24.735C24.1123 26.0012 22.2568 28.6715 17.0917 27.7062C16.9789 27.6059 16.7407 27.4178 17.2296 27.4554C21.7052 27.7438 22.4825 26.114 22.5577 24.6096C22.6455 22.7918 21.8682 22.0271 18.1824 22.4157C14.8188 22.8393 11.6336 24.1697 8.96801 26.2645C8.96801 26.2645 9.16859 31.3794 9.16859 35.2783C8.98556 38.879 8.56677 42.4638 7.91493 46.0096C10.1379 47.6766 12.6845 48.861 15.3916 49.487C18.0987 50.1131 20.9067 50.167 23.6359 49.6453C23.8114 45.3452 24.1875 40.4183 24.4633 37.7856C25.228 30.4392 26.3814 28.2829 30.4934 27.0919Z" fill="white"/>
    <path d="M37.4137 20.4598C36.5085 20.4574 35.6041 20.5118 34.7058 20.6228C34.9662 19.2637 34.9233 17.8639 34.5804 16.5233C34.254 15.6077 34.1217 14.6343 34.1918 13.6649C34.5052 10.9319 36.3731 7.68495 34.4926 4.30006C33.941 4.09948 32.4742 8.06105 30.18 8.65027C26.5194 9.50276 21.2414 6.61934 17.0041 7.64734C17.2422 3.88635 15.9008 0.514002 13.2431 0C11.1871 4.83914 6.04704 7.89807 5.55811 14.0661C5.52099 14.7969 5.52099 15.5292 5.55811 16.26C5.65841 22.2024 7.50129 28.5208 7.04997 34.902C6.88607 38.0626 6.53442 41.2106 5.99689 44.3295C6.6121 44.9308 7.26535 45.492 7.95261 46.0094C8.60445 42.4635 9.02323 38.8787 9.20627 35.2781C9.20627 31.3792 9.00568 26.2642 9.00568 26.2642C11.6713 24.1694 14.8564 22.839 18.2201 22.4155C21.8933 22.0143 22.6706 22.779 22.5954 24.6094C22.5202 26.1138 21.7429 27.731 17.2673 27.4552C16.7784 27.4552 17.0166 27.6056 17.1294 27.7059C22.307 28.6838 24.1625 26.0135 24.2878 24.7348C24.3203 24.3677 24.3203 23.9986 24.2878 23.6315C24.453 23.6954 24.6258 23.7376 24.8018 23.7569C28.4751 24.1706 29.3526 21.5379 29.3526 21.5379C29.4404 21.2872 29.0768 21.1744 28.9264 21.4627C28.2118 22.8793 25.9803 22.7164 24.8018 22.6161C24.5008 22.5774 24.2084 22.4884 23.9368 22.3528C23.3601 21.2496 21.8808 20.2717 18.3204 20.3971C13.8448 20.5475 8.40393 23.945 8.40393 23.945C7.63136 20.7254 7.35655 17.4065 7.58905 14.1037C7.70737 13.1498 7.90019 12.2067 8.16573 11.283C9.63252 7.44676 13.1052 5.01465 13.6693 2.2942C15.625 4.80153 13.7821 10.606 13.7821 10.606C15.4427 9.85752 17.2195 9.39955 19.035 9.25203C22.0142 9.50849 24.9772 9.927 27.9109 10.5057C32.4492 11.0322 33.1512 7.52198 33.7655 7.52198C33.8282 10.3929 32.3238 11.5588 32.3238 13.9909C32.3238 14.1664 32.3238 14.3168 32.3238 14.4673C32.3238 15.7209 32.6748 16.3352 32.7751 19.4192C32.5495 23.3933 29.6284 25.9759 25.3284 25.9508C24.852 25.9508 25.3284 26.2893 25.3284 26.2893C25.3284 26.2893 31.5967 27.1418 34.104 21.6633C35.3282 21.3266 36.6093 21.2497 37.865 21.4376H38.053C41.814 21.9892 42.2027 23.6942 41.814 25.2989C41.5633 26.5526 41.1747 27.217 39.5449 27.2922C38.9797 27.3093 38.4139 27.2842 37.8525 27.217C35.4266 26.7367 32.9343 26.6943 30.4935 27.0917C26.3814 28.2826 25.2155 30.4264 24.4633 37.7854C24.1875 40.4181 23.8114 45.3074 23.6359 49.645C24.3126 49.5169 24.9821 49.3537 25.6418 49.1561C25.7797 45.7712 26.0806 42.0102 26.4692 38.3621C26.9456 33.874 26.9205 29.3232 32.236 28.3328C34.4353 28.0143 36.6741 28.0993 38.8428 28.5835L39.8207 28.7089C41.6134 28.8844 43.8575 28.7089 43.8951 24.8727C43.9327 21.0365 40.0965 20.4723 37.4137 20.4598Z" fill="#221E20"/>
    <path d="M28.5879 14.6554C26.77 15.4703 27.3342 19.4193 30.2928 18.4916C30.5678 18.3956 30.8198 18.2437 31.033 18.0454C31.2462 17.8471 31.416 17.6067 31.5317 17.3395C31.6473 17.0722 31.7062 16.7839 31.7048 16.4927C31.7034 16.2015 31.6416 15.9138 31.5233 15.6477C31.405 15.3816 31.2329 15.143 31.0177 14.9468C30.8025 14.7506 30.549 14.6012 30.2732 14.5079C29.9973 14.4146 29.7051 14.3796 29.4151 14.405C29.125 14.4304 28.8433 14.5156 28.5879 14.6554ZM30.2427 16.3854C30.0989 16.3854 29.9583 16.3428 29.8387 16.2629C29.7191 16.183 29.626 16.0694 29.5709 15.9366C29.5159 15.8037 29.5015 15.6575 29.5295 15.5165C29.5576 15.3754 29.6268 15.2459 29.7285 15.1442C29.8302 15.0425 29.9598 14.9732 30.1008 14.9452C30.2419 14.9171 30.3881 14.9315 30.5209 14.9865C30.6538 15.0416 30.7674 15.1348 30.8473 15.2544C30.9272 15.3739 30.9698 15.5145 30.9698 15.6583C30.9698 15.8512 30.8932 16.0361 30.7568 16.1725C30.6205 16.3088 30.4355 16.3854 30.2427 16.3854Z" fill="#221E20"/>
    <path d="M19.3987 13.9531C19.0243 14.0251 18.6804 14.2084 18.412 14.4791C18.1436 14.7498 17.9631 15.0951 17.8943 15.4701C16.9916 19.2937 23.0217 19.6448 22.5328 15.9465C22.3573 14.6677 21.4797 13.552 19.3987 13.9531ZM21.0033 16.1721C20.8273 16.1721 20.6552 16.1199 20.5088 16.0221C20.3625 15.9243 20.2484 15.7853 20.181 15.6226C20.1136 15.46 20.096 15.281 20.1303 15.1084C20.1647 14.9357 20.2495 14.7771 20.3739 14.6526C20.4984 14.5281 20.657 14.4434 20.8297 14.409C21.0024 14.3747 21.1813 14.3923 21.344 14.4597C21.5066 14.527 21.6456 14.6411 21.7434 14.7875C21.8412 14.9339 21.8934 15.106 21.8934 15.282C21.8901 15.5159 21.7949 15.7391 21.6283 15.9033C21.4618 16.0675 21.2373 16.1596 21.0033 16.1596V16.1721Z" fill="#221E20"/>
    <path d="M53.7237 36.6277C53.6301 36.3833 53.5792 36.1246 53.5733 35.863C53.5713 35.5883 53.6224 35.3159 53.7237 35.0606C53.9484 35.0912 54.1761 35.0912 54.4007 35.0606C55.1278 34.9729 56.3314 34.2332 56.7701 28.4663L57.2841 21.8345H65.1697V36.5274C64.8378 36.6335 64.4898 36.6802 64.1417 36.6653C63.7848 36.6951 63.4258 36.648 63.0886 36.5274V23.4642H59.1396L58.7509 28.4789C58.1993 35.9382 56.0932 36.7405 54.7392 36.7405C54.3969 36.7578 54.0539 36.7197 53.7237 36.6277Z" fill="#464646"/>
    <path d="M71.7766 25.6333C74.6224 25.6333 76.3524 27.1753 76.3524 31.2622C76.3524 35.3492 74.5973 36.8912 71.7766 36.8912C68.9558 36.8912 67.2007 35.3366 67.2007 31.3124C67.2007 27.2881 68.9307 25.6333 71.7766 25.6333ZM71.7766 27.2255C70.2722 27.2255 69.2692 28.0905 69.2692 31.2622C69.2692 34.434 70.2345 35.299 71.7766 35.299C73.3186 35.299 74.2839 34.434 74.2839 31.2622C74.2839 28.0905 73.2809 27.2129 71.7766 27.2129V27.2255Z" fill="#464646"/>
    <path d="M80.4143 36.5525C80.0735 36.6576 79.7175 36.7042 79.3612 36.6904C79.0172 36.7052 78.6733 36.6585 78.3457 36.5525V26.0092C78.676 25.8956 79.0247 25.8445 79.3737 25.8588C79.7222 25.8534 80.0693 25.9042 80.4017 26.0092V30.2967H84.8146V26.0092C85.1476 25.9069 85.4943 25.8561 85.8426 25.8588C86.1913 25.8507 86.5389 25.9015 86.8706 26.0092V36.5525C86.5305 36.6603 86.1739 36.707 85.8175 36.6904C85.4738 36.6996 85.1309 36.653 84.8021 36.5525V31.9641H80.4143V36.5525Z" fill="#464646"/>
    <path d="M95.1824 25.834C95.2943 26.1085 95.3497 26.4026 95.3454 26.699C95.3503 26.9832 95.2947 27.2653 95.1824 27.5264H90.9325V36.5277C90.6006 36.6339 90.2526 36.6806 89.9045 36.6656C89.5561 36.687 89.2069 36.6401 88.8765 36.5277V25.834H95.1824Z" fill="#464646"/>
    <path d="M110.038 21.9849C110.383 21.8985 110.736 21.8522 111.091 21.847C111.471 21.8548 111.849 21.901 112.22 21.9849L107.544 28.7421L112.809 36.5273C112.4 36.6347 111.978 36.6811 111.555 36.6652C111.133 36.6799 110.711 36.6334 110.302 36.5273L105.801 29.8077H104.297V36.5273C103.958 36.6414 103.6 36.6883 103.244 36.6652C102.887 36.6763 102.532 36.6297 102.19 36.5273V21.9849C102.535 21.8798 102.896 21.8332 103.256 21.847C103.604 21.832 103.952 21.8787 104.284 21.9849V28.1278H105.788L110.038 21.9849Z" fill="#464646"/>
    <path d="M115.153 31.9767C115.041 31.7382 114.989 31.4754 115.003 31.212C114.996 30.945 115.047 30.6797 115.153 30.4347H119.077C118.914 28.316 118.012 27.2254 116.257 27.2254C115.571 27.2221 114.89 27.3279 114.238 27.5388C113.884 27.1673 113.686 26.6733 113.687 26.1597C114.598 25.7758 115.582 25.596 116.57 25.6332C119.604 25.6332 121.146 27.5889 121.146 31.2621C121.146 34.9354 119.579 36.8786 116.57 36.8786C115.491 36.9252 114.417 36.7147 113.436 36.2643C113.433 35.9989 113.488 35.736 113.596 35.4937C113.704 35.2514 113.863 35.0353 114.063 34.8602C114.745 35.0915 115.461 35.2101 116.181 35.2112C117.974 35.2112 118.939 34.1581 119.102 31.9767H115.153Z" fill="#464646"/>
    <path d="M129.771 25.8338C129.99 26.3897 129.99 27.008 129.771 27.5639H126.7V36.5276C126.368 36.6337 126.02 36.6804 125.672 36.6655C125.323 36.6868 124.974 36.64 124.644 36.5276V27.5513H121.585C121.462 27.2794 121.399 26.9846 121.399 26.6863C121.399 26.3881 121.462 26.0932 121.585 25.8213L129.771 25.8338Z" fill="#464646"/>
</svg>
