<svg width="17" height="17" viewBox="0 0 17 17" fill="none" xmlns="http://www.w3.org/2000/svg">
    <path fill-rule="evenodd" clip-rule="evenodd" d="M16.3536 1.35355C16.5488 1.15829 16.5488 0.841709 16.3536 0.646447C16.1583 0.451184 15.8417 0.451184 15.6464 0.646447L12.1879 4.10495C10.9703 3.36903 9.57447 3 8 3C4.47319 3 1.84551 4.84969 0.105961 8.52699C0.0361867 8.67518 0 8.83704 0 9.00092C0 9.16481 0.0361867 9.32666 0.105961 9.47485C0.885207 11.1213 1.84304 12.4014 2.97995 13.3129L0.646447 15.6464C0.451184 15.8417 0.451184 16.1583 0.646447 16.3536C0.841709 16.5488 1.15829 16.5488 1.35355 16.3536L3.81204 13.8951L4.60557 13.1015L6.21743 11.4897L6.97382 10.7333L9.71829 7.9888L10.4897 7.21737L12.2425 5.4646L13.02 4.68705L16.3536 1.35355ZM11.3942 4.89869C10.3639 4.31105 9.22003 4 8 4C5.04019 4 2.52853 5.8316 1 9.00092C1.71972 10.4932 2.65741 11.6885 3.75722 12.5357L5.51027 10.7826C5.18268 10.2998 5 9.69328 5 9C5 7.21104 6.21641 6 8 6C8.69229 6 9.29913 6.18245 9.78256 6.51033L11.3942 4.89869ZM9.03164 7.26125C8.71262 7.05699 8.3335 6.93865 7.9266 6.93865C6.79075 6.93865 6 7.86166 6 9.00092C6 9.38101 6.09619 9.73 6.26656 10.0263L9.03164 7.26125ZM8 15C6.81475 15 5.73074 14.7909 4.74777 14.3735L5.56548 13.5558C6.33123 13.848 7.147 14 8 14C10.9616 14 13.4733 12.1693 15 9C14.4508 7.86121 13.7746 6.89525 12.9964 6.12495L13.7616 5.35969C14.5797 6.19437 15.2904 7.24986 15.894 8.52515C16.0353 8.82883 16.0353 9.17485 15.894 9.47301C14.1545 13.1503 11.5268 15 8 15ZM8 12C7.7212 12 7.45626 11.9704 7.20766 11.9136L8.12481 10.9965C9.14979 10.9386 9.91176 10.1699 9.9772 9.14411L10.9137 8.2076C10.9704 8.45607 11 8.72101 11 9C11 10.789 9.78359 12 8 12Z" fill="#41B64B"/>
</svg>
