<svg xmlns="http://www.w3.org/2000/svg" display="none">

    <symbol id="phone-icon" viewBox="0 0 12 18">
        <path fill-rule="evenodd" clip-rule="evenodd"
              d="M10 0.5H5.5C5.22385 0.5 5 0.723858 5 1C5 1.27614 5.22385 1.5 5.5 1.5H8.79289L0.646447 9.64644C0.451184 9.84171 0.451184 10.1583 0.646447 10.3535C0.841709 10.5488 1.15829 10.5488 1.35355 10.3535L9.5 2.20711V5.5C9.5 5.77614 9.72385 6 10 6C10.2761 6 10.5 5.77614 10.5 5.5V1C10.5 0.723858 10.2761 0.5 10 0.5ZM2.00001 17.5H6.50001C6.77615 17.5 7.00001 17.2761 7.00001 17C7.00001 16.7238 6.77615 16.5 6.50001 16.5H3.20711L11.3536 8.35355C11.5488 8.15829 11.5488 7.84171 11.3536 7.64644C11.1583 7.45118 10.8417 7.45118 10.6464 7.64644L2.50001 15.7929L2.50001 12.5C2.50001 12.2238 2.27615 12 2.00001 12C1.72386 12 1.50001 12.2238 1.50001 12.5L1.50001 17C1.50001 17.2761 1.72386 17.5 2.00001 17.5Z"/>
    </symbol>

    <symbol id="user" viewBox="0 0 16 15">
        <path fill-rule="evenodd" clip-rule="evenodd" d="M7.99999 0C7.3541 0 6.30039 0.168055 5.43205 0.677868C4.99189 0.936298 4.57927 1.29459 4.30393 1.78361C4.02483 2.27929 3.90578 2.87612 4.00501 3.57071C4.16906 4.71909 4.14919 5.94737 4.4551 7.06906C4.56777 7.48215 4.7469 7.82902 5.06049 8.14262C5.34358 8.4257 5.71737 8.66221 6.19182 8.9045C6.19783 8.91871 6.20481 8.93683 6.21233 8.95925C6.24852 9.06711 6.28009 9.2228 6.29177 9.39745C6.30344 9.57184 6.2938 9.74361 6.26175 9.88641C6.24324 9.96887 6.22005 10.0297 6.19724 10.0733C5.54515 10.2858 5.09213 10.3991 4.62872 10.5149L4.62772 10.5152C4.12496 10.6409 3.61009 10.7696 2.84187 11.0257C1.78392 11.3783 1.31921 12.178 1.12885 12.9698C0.977531 13.5992 0.988998 14.2763 0.996959 14.7463C0.998541 14.8397 0.999985 14.9249 0.999985 15L1.99999 15C1.99998 14.8991 1.99848 14.7948 1.99694 14.6881C1.99015 14.2163 1.98266 13.6964 2.10115 13.2035C2.23747 12.6365 2.52276 12.1861 3.1581 11.9743C3.88937 11.7306 4.37433 11.6093 4.87125 11.4851L4.87225 11.4848C5.37501 11.3591 5.88988 11.2304 6.6581 10.9743L6.77008 10.937L6.85354 10.8536C7.06947 10.6376 7.18073 10.3582 7.23748 10.1054C7.29529 9.84782 7.30599 9.57664 7.28955 9.33072C7.27312 9.08507 7.22814 8.84311 7.16041 8.6412C7.12675 8.54086 7.08303 8.43703 7.02578 8.34363C6.97515 8.26103 6.88098 8.13148 6.72359 8.05279C6.23842 7.8102 5.95228 7.62019 5.7676 7.43551C5.59683 7.26473 5.49471 7.08035 5.41987 6.80594C5.12515 5.72531 5.15297 4.53539 4.99496 3.42929C4.92448 2.93594 5.01225 2.5638 5.17529 2.27424C5.69692 1.34783 7.0161 1 7.99999 1V0ZM7.99999 0C8.64587 0 9.69959 0.168055 10.5679 0.677868C11.0081 0.936298 11.4207 1.29459 11.696 1.78361C11.9751 2.27929 12.0942 2.87612 11.995 3.57071C11.8847 4.34278 11.8239 4.96556 11.7729 5.48764L11.7554 5.66625C11.7016 6.21173 11.6517 6.67727 11.5449 7.06906C11.4322 7.48215 11.2531 7.82902 10.9395 8.14262C10.6564 8.4257 10.2826 8.66221 9.80815 8.9045C9.80214 8.91871 9.79516 8.93683 9.78764 8.95925C9.75146 9.06711 9.71988 9.2228 9.7082 9.39745C9.69654 9.57184 9.70617 9.74361 9.73822 9.88641C9.75673 9.96887 9.77993 10.0297 9.80274 10.0733C10.4548 10.2858 10.9078 10.3991 11.3713 10.5149L11.3723 10.5152C11.875 10.6409 12.3899 10.7696 13.1581 11.0257C14.2161 11.3783 14.6808 12.178 14.8711 12.9698C15.0224 13.5992 15.011 14.2763 15.003 14.7463C15.0014 14.8397 15 14.925 15 15L14 15C14 14.8991 14.0015 14.7948 14.003 14.6881C14.0098 14.2163 14.0173 13.6964 13.8988 13.2035C13.7625 12.6365 13.4772 12.1861 12.8419 11.9743C12.1106 11.7306 11.6256 11.6093 11.1287 11.4851L11.1277 11.4848C10.625 11.3591 10.1101 11.2304 9.34188 10.9743L9.2299 10.937L9.14644 10.8536C8.9305 10.6376 8.81924 10.3582 8.7625 10.1054C8.70469 9.84782 8.69398 9.57664 8.71043 9.33072C8.72686 9.08507 8.77183 8.84311 8.83957 8.6412C8.87323 8.54086 8.91695 8.43703 8.9742 8.34363C9.02483 8.26103 9.119 8.13148 9.27638 8.05279C9.76155 7.8102 10.0477 7.62019 10.2324 7.43551C10.4032 7.26473 10.5053 7.08035 10.5801 6.80594C10.8748 5.72531 10.847 4.53539 11.005 3.42929C11.0755 2.93594 10.9877 2.5638 10.8247 2.27424C10.3031 1.34782 8.98387 1 7.99999 1V0Z"/>
    </symbol>

    <symbol id="stages1" viewBox="0 0 96 90">
        <rect x="0.5" y="13.5" width="55" height="63" rx="3.5" stroke="#41B64B"/>
        <rect x="40.5" y="13.5" width="55" height="63" rx="3.5" stroke="#41B64B"/>
        <rect x="20.5" y="0.5" width="55" height="89" rx="3.5" fill="white" stroke="#41B64B"/>
        <path d="M39.5 26L45.5 32L59.5 18" stroke="#41B64B" stroke-width="2" stroke-linecap="round" stroke-linejoin="round"/>
        <path fill-rule="evenodd" clip-rule="evenodd" d="M32 54C31.4477 54 31 54.4477 31 55C31 55.5523 31.4477 56 32 56H64C64.5523 56 65 55.5523 65 55C65 54.4477 64.5523 54 64 54H32ZM32 68C31.4477 68 31 68.4477 31 69C31 69.5523 31.4477 70 32 70H60C60.5523 70 61 69.5523 61 69C61 68.4477 60.5523 68 60 68H32ZM31 61C31 60.4477 31.4477 60 32 60H53C53.5523 60 54 60.4477 54 61C54 61.5523 53.5523 62 53 62H32C31.4477 62 31 61.5523 31 61ZM32 74C31.4477 74 31 74.4477 31 75C31 75.5523 31.4477 76 32 76H46C46.5523 76 47 75.5523 47 75C47 74.4477 46.5523 74 46 74H32Z" fill="#C4C4C4"/>
    </symbol>

    <symbol id="stages2" viewBox="0 0 56 90">
        <rect x="0.5" y="0.5" width="55" height="89" rx="7.5" fill="white" stroke="#41B64B"/>
        <path d="M15.5 0.5L18.4106 5.07375C18.7777 5.65065 19.4141 6 20.0979 6H36.9021C37.5859 6 38.2223 5.65065 38.5894 5.07375L41.5 0.5" stroke="#41B64B"/>
        <path d="M11 83C11 82.4477 11.4477 82 12 82H20C20.5523 82 21 82.4477 21 83C21 83.5523 20.5523 84 20 84H12C11.4477 84 11 83.5523 11 83Z" fill="#C4C4C4"/>
        <path d="M35 83C35 82.4477 35.4477 82 36 82H44C44.5523 82 45 82.4477 45 83C45 83.5523 44.5523 84 44 84H36C35.4477 84 35 83.5523 35 83Z" fill="#C4C4C4"/>
        <path d="M23 83C23 82.4477 23.4477 82 24 82H32C32.5523 82 33 82.4477 33 83C33 83.5523 32.5523 84 32 84H24C23.4477 84 23 83.5523 23 83Z" fill="#C4C4C4"/>
        <rect x="6" y="39" width="44" height="4" fill="#E5E5E5"/>
        <path d="M17.4791 41L20.0591 43.6L18.9791 44.76L16.3591 42.12L13.7391 44.76L12.6791 43.6L15.2591 41L12.6791 38.4L13.7391 37.24L16.3591 39.88L18.9791 37.24L20.0591 38.4L17.4791 41ZM29.1197 41L31.6997 43.6L30.6197 44.76L27.9997 42.12L25.3797 44.76L24.3197 43.6L26.8997 41L24.3197 38.4L25.3797 37.24L27.9997 39.88L30.6197 37.24L31.6997 38.4L29.1197 41ZM40.7603 41L43.3403 43.6L42.2603 44.76L39.6403 42.12L37.0203 44.76L35.9603 43.6L38.5403 41L35.9603 38.4L37.0203 37.24L39.6403 39.88L42.2603 37.24L43.3403 38.4L40.7603 41Z" fill="#41B64B"/>
    </symbol>

    <symbol id="stages3" viewBox="0 0 128 85">
        <path d="M11.5 4C11.5 2.067 13.067 0.5 15 0.5H113C114.933 0.5 116.5 2.067 116.5 4V68.5H11.5V4Z" fill="white" stroke="#41B64B"/>
        <path fill-rule="evenodd" clip-rule="evenodd" d="M72 25C71.4477 25 71 25.4477 71 26C71 26.5523 71.4477 27 72 27H104C104.552 27 105 26.5523 105 26C105 25.4477 104.552 25 104 25H72ZM72 39C71.4477 39 71 39.4477 71 40C71 40.5523 71.4477 41 72 41H100C100.552 41 101 40.5523 101 40C101 39.4477 100.552 39 100 39H72ZM71 32C71 31.4477 71.4477 31 72 31H93C93.5523 31 94 31.4477 94 32C94 32.5523 93.5523 33 93 33H72C71.4477 33 71 32.5523 71 32ZM72 45C71.4477 45 71 45.4477 71 46C71 46.5523 71.4477 47 72 47H86C86.5523 47 87 46.5523 87 46C87 45.4477 86.5523 45 86 45H72Z" fill="#C4C4C4"/>
        <rect x="0.5" y="68.5" width="127" height="5" rx="2.5" fill="white" stroke="#41B64B"/>
        <rect x="19.5" y="21.5" width="39" height="63" rx="5.5" fill="white" stroke="#41B64B"/>
        <path fill-rule="evenodd" clip-rule="evenodd" d="M43 44.5H38.5C38.2239 44.5 38 44.7239 38 45C38 45.2761 38.2239 45.5 38.5 45.5H41.7929L33.6464 53.6464C33.4512 53.8417 33.4512 54.1583 33.6464 54.3535C33.8417 54.5488 34.1583 54.5488 34.3536 54.3535L42.5 46.2071V49.5C42.5 49.7761 42.7239 50 43 50C43.2761 50 43.5 49.7761 43.5 49.5V45C43.5 44.7239 43.2761 44.5 43 44.5ZM35 61.5H39.5C39.7761 61.5 40 61.2761 40 61C40 60.7238 39.7761 60.5 39.5 60.5H36.2071L44.3536 52.3535C44.5488 52.1583 44.5488 51.8417 44.3536 51.6464C44.1583 51.4512 43.8417 51.4512 43.6464 51.6464L35.5 59.7929L35.5 56.5C35.5 56.2238 35.2761 56 35 56C34.7239 56 34.5 56.2238 34.5 56.5L34.5 61C34.5 61.2761 34.7239 61.5 35 61.5Z" fill="#41B64B"/>
        <path d="M30 21L31.9678 24.0774C32.3353 24.6522 32.9705 25 33.6528 25H45.3472C46.0295 25 46.6647 24.6522 47.0322 24.0774L49 21" stroke="#41B64B"/>
    </symbol>

    <symbol id="stages4" viewBox="0 0 80 80">
        <path d="M67.9302 12.0687L67.9303 12.0688C73.5846 17.7229 77.3897 24.96 78.8426 32.8231C80.2954 40.6863 79.3275 48.8053 76.0669 56.1066C72.8064 63.4079 67.4066 69.5476 60.5816 73.7141C53.7566 77.8806 45.8278 79.8775 37.8434 79.441C29.8591 79.0044 22.1952 76.1548 15.8652 71.2691C9.53517 66.3833 4.83702 59.6914 2.39194 52.0781C-0.0531431 44.4648 -0.130012 36.2888 2.17149 28.6309C4.473 20.973 9.04449 14.1939 15.2816 9.19L16.3909 8.3H14.9687H11.1943C10.9025 8.3 10.6227 8.18411 10.4164 7.97782C10.2102 7.77153 10.0943 7.49174 10.0943 7.2C10.0943 6.90827 10.2102 6.62848 10.4164 6.42219C10.6227 6.2159 10.9025 6.1 11.1943 6.1H19.1943C19.486 6.1 19.7658 6.2159 19.9721 6.42219C20.1784 6.62848 20.2943 6.90827 20.2943 7.2V15.2C20.2943 15.4917 20.1784 15.7715 19.9721 15.9778C19.7658 16.1841 19.486 16.3 19.1943 16.3C18.9025 16.3 18.6227 16.1841 18.4164 15.9778C18.2102 15.7715 18.0943 15.4917 18.0943 15.2V10.848V9.84152L17.2922 10.4496C16.0031 11.4268 14.7784 12.4863 13.6258 13.6214L13.6231 13.624C7.52077 19.726 3.72303 27.7551 2.877 36.3433C2.03098 44.9314 4.18902 53.5473 8.98342 60.7226C13.7778 67.898 20.9119 73.189 29.1701 75.694C37.4282 78.199 46.2995 77.763 54.2723 74.4604C62.245 71.1577 68.826 65.1927 72.8937 57.5818C76.9614 49.9709 78.2643 41.185 76.5802 32.7212C74.8962 24.2573 70.3295 16.6393 63.6582 11.1651C56.987 5.6909 48.624 2.69929 39.9943 2.7C39.7025 2.7 39.4227 2.58411 39.2164 2.37782C39.0102 2.17153 38.8943 1.89174 38.8943 1.6C38.8943 1.30827 39.0102 1.02848 39.2164 0.822185C39.4227 0.615897 39.7025 0.500004 39.9943 0.500004L39.9945 0.500004C45.1827 0.497695 50.3205 1.51826 55.114 3.50332C59.9075 5.48838 64.2626 8.39899 67.9302 12.0687Z" fill="#41B64B" stroke="white"/>
        <path fill-rule="evenodd" clip-rule="evenodd" d="M47.8092 29.2625L47.8432 29.221L47.8724 29.176C48.0732 28.8676 48.3691 28.633 48.7152 28.5078C49.0128 28.4002 49.3336 28.3784 49.6412 28.4435C49.7522 28.4669 49.7322 28.4636 49.8053 28.4869C50.1507 28.597 50.4518 28.8152 50.6641 29.1095C50.8793 29.4081 50.9915 29.7686 50.9834 30.1366L50.9823 30.1885L50.9866 30.2403C51.0102 30.5278 51.0212 31.9304 51.0206 33.9203C51.02 35.876 51.0088 38.3281 50.9944 40.6514L50.9882 41.6576H52.7944C52.9535 41.6576 53.1061 41.7208 53.2187 41.8333C53.3312 41.9459 53.3944 42.0985 53.3944 42.2576C53.3944 42.4167 53.3312 42.5693 53.2187 42.6819C53.1061 42.7944 52.9535 42.8576 52.7944 42.8576H50.9935L50.9864 43.8505C50.9812 44.5873 50.9751 45.2714 50.9697 45.8715C50.9621 46.7205 50.9561 47.4012 50.956 47.8248C50.9537 47.9817 50.89 48.1316 50.7784 48.2422C50.666 48.3535 50.5142 48.416 50.356 48.416H50.3472C50.2695 48.4149 50.1928 48.3987 50.1214 48.3683C50.0488 48.3375 49.9831 48.2927 49.9279 48.2365C49.8727 48.1803 49.8291 48.1137 49.7996 48.0407C49.7701 47.9676 49.7552 47.8895 49.756 47.8106L49.756 47.8096L49.7611 47.1754L49.7612 47.1649C49.7694 46.1357 49.7785 45.018 49.7864 43.8645L49.7933 42.8576H40.9796C40.8753 42.8576 40.7727 42.8305 40.6821 42.7788C40.5914 42.7271 40.5159 42.6526 40.4628 42.5628C40.4097 42.4729 40.381 42.3708 40.3795 42.2664C40.3779 42.1621 40.4039 42.0587 40.4543 41.9673C40.9813 41.0107 42.5753 38.1295 44.1702 35.3252C44.968 33.9225 45.7636 32.5434 46.425 31.4354C47.1055 30.2953 47.5984 29.521 47.8092 29.2625ZM49.8136 29.858C49.6767 29.4721 49.1078 29.3294 48.8596 29.7228L47.9715 31.1762C46.8412 33.026 44.6944 36.8043 42.817 40.1705L41.9877 41.6576H49.7865L49.7944 40.6656C49.8232 37.0441 49.836 33.5374 49.8248 31.6915L49.8136 29.858Z" fill="#41B64B"/>
        <path d="M37.7816 48.5082C37.7093 48.5392 37.6316 48.5557 37.5529 48.5568C35.4767 48.583 33.8398 48.5946 32.5432 48.6038L32.5428 48.6038C32.2481 48.6059 31.9533 48.6077 31.6586 48.6101C31.2076 48.6137 30.7566 48.6186 30.3057 48.6279C30.0765 48.6325 28.1931 48.637 27.9944 48.6393C27.4944 48.6393 27.2518 48.3756 27.2518 47.7705C27.2556 47.721 27.2705 47.6447 27.334 47.5121L34.1305 38.1328C35.2139 36.8666 35.9101 35.315 36.1355 33.6631L36.1466 33.5819L36.1443 33.5C36.1153 32.4627 35.7051 31.4726 34.9921 30.7187C34.279 29.9648 33.3132 29.5002 32.2792 29.4135C31.2452 29.3268 30.2155 29.6243 29.3869 30.2489C28.5583 30.8735 27.989 31.7816 27.7877 32.7996L27.7857 32.8097L27.7839 32.8199C27.7701 32.8985 27.7407 32.9735 27.6975 33.0406C27.6543 33.1077 27.5981 33.1655 27.5323 33.2106C27.4665 33.2557 27.3923 33.2873 27.3142 33.3034C27.2361 33.3195 27.1555 33.3199 27.0772 33.3045C26.9989 33.289 26.9245 33.2582 26.8583 33.2137C26.792 33.1691 26.7354 33.1119 26.6916 33.0452C26.6477 32.9785 26.6177 32.9037 26.6031 32.8253C26.5885 32.7468 26.5898 32.6663 26.6067 32.5883L26.6087 32.579L26.6106 32.5697C26.8713 31.2492 27.6141 30.0731 28.6943 29.2701C29.7745 28.4672 31.1148 28.095 32.4544 28.226C33.7939 28.3569 35.0368 28.9817 35.9411 29.9786C36.8312 30.9599 37.3305 32.2327 37.3459 33.556C37.0897 35.4444 36.34 37.2324 35.172 38.7393L35.157 38.7585L35.1431 38.7785C32.7396 42.2122 31.1086 44.4054 30.056 45.7966L28.8496 47.3911L30.8491 47.3999C32.6803 47.408 35.196 47.3871 37.5369 47.3566L37.5566 47.3564L37.5762 47.3554C37.6507 47.3515 37.7252 47.363 37.795 47.3893C37.8648 47.4156 37.9284 47.456 37.9819 47.5081C38.0353 47.5601 38.0774 47.6227 38.1055 47.6918C38.1335 47.7609 38.147 47.8351 38.1451 47.9096L38.1446 47.9293L38.1448 47.949C38.1458 48.0278 38.1313 48.106 38.1021 48.1792C38.0729 48.2524 38.0296 48.3191 37.9746 48.3756C37.9196 48.432 37.854 48.4771 37.7816 48.5082Z" fill="#41B64B"/>
        <mask id="path-4-inside-1" fill="white">
            <path fill-rule="evenodd" clip-rule="evenodd" d="M38.8629 10.0686C39.1629 9.76855 39.5699 9.59998 39.9942 9.59998C40.4186 9.59998 40.8256 9.76855 41.1256 10.0686C41.4257 10.3687 41.5942 10.7756 41.5942 11.2V12.8C41.5942 13.2243 41.4257 13.6313 41.1256 13.9313C40.8256 14.2314 40.4186 14.4 39.9942 14.4C39.5699 14.4 39.1629 14.2314 38.8629 13.9313C38.5628 13.6313 38.3942 13.2243 38.3942 12.8V11.2C38.3942 10.7756 38.5628 10.3687 38.8629 10.0686ZM41.1256 69.9314C40.8256 70.2314 40.4186 70.4 39.9942 70.4C39.5699 70.4 39.1629 70.2314 38.8629 69.9314C38.5628 69.6313 38.3942 69.2243 38.3942 68.8V67.2C38.3942 66.7756 38.5628 66.3687 38.8629 66.0686C39.1629 65.7685 39.5699 65.6 39.9942 65.6C40.4186 65.6 40.8256 65.7685 41.1256 66.0686C41.4257 66.3687 41.5942 66.7756 41.5942 67.2V68.8C41.5942 69.2243 41.4257 69.6313 41.1256 69.9314ZM65.5942 40C65.5942 40.4243 65.7628 40.8313 66.0629 41.1313C66.3629 41.4314 66.7699 41.6 67.1942 41.6H68.7942C69.2186 41.6 69.6256 41.4314 69.9256 41.1313C70.2257 40.8313 70.3942 40.4243 70.3942 40C70.3942 39.5756 70.2257 39.1686 69.9256 38.8686C69.6256 38.5685 69.2186 38.4 68.7942 38.4H67.1942C66.7699 38.4 66.3629 38.5685 66.0629 38.8686C65.7628 39.1686 65.5942 39.5756 65.5942 40ZM13.9256 38.8686C14.2257 39.1686 14.3942 39.5756 14.3942 40C14.3942 40.4243 14.2257 40.8313 13.9256 41.1313C13.6256 41.4314 13.2186 41.6 12.7942 41.6H11.1942C10.7699 41.6 10.3629 41.4314 10.0629 41.1313C9.76281 40.8313 9.59424 40.4243 9.59424 40C9.59424 39.5756 9.76281 39.1686 10.0629 38.8686C10.3629 38.5685 10.7699 38.4 11.1942 38.4H12.7942C13.2186 38.4 13.6256 38.5685 13.9256 38.8686ZM15.8582 55.7857L17.2422 54.9857C17.6067 54.772 17.8718 54.4228 17.9798 54.0143C18.0878 53.6059 18.0299 53.1713 17.8186 52.8054C17.6073 52.4395 17.2599 52.172 16.8522 52.0613C16.4444 51.9506 16.0095 52.0056 15.6422 52.2145L14.2582 53.0145C13.8937 53.2281 13.6285 53.5773 13.5205 53.9858C13.4125 54.3943 13.4705 54.8289 13.6817 55.1948C13.893 55.5607 14.2404 55.8282 14.6481 55.9389C15.0559 56.0496 15.4909 55.9945 15.8582 55.7857ZM62.7558 25.0145L64.1398 24.2145C64.5071 24.0056 64.942 23.9506 65.3498 24.0613C65.7575 24.172 66.1049 24.4395 66.3162 24.8054C66.5275 25.1713 66.5854 25.6059 66.4774 26.0143C66.3694 26.4228 66.1042 26.772 65.7398 26.9857L64.3558 27.7857C64.1737 27.8924 63.9724 27.962 63.7633 27.9906C63.5543 28.0192 63.3416 28.0062 63.1376 27.9522C62.9336 27.8983 62.7423 27.8045 62.5747 27.6764C62.4071 27.5482 62.2665 27.3881 62.161 27.2054C62.0555 27.0226 61.9871 26.8208 61.9599 26.6116C61.9327 26.4024 61.9472 26.1898 62.0025 25.9862C62.0578 25.7825 62.1528 25.5918 62.2821 25.4251C62.4114 25.2583 62.5724 25.1188 62.7558 25.0145ZM25.0134 17.2432C25.1177 17.4266 25.2573 17.5876 25.424 17.7169C25.5908 17.8462 25.7815 17.9412 25.9851 17.9965C26.1887 18.0518 26.4013 18.0662 26.6106 18.039C26.8198 18.0118 27.0216 17.9435 27.2043 17.838C27.3871 17.7325 27.5471 17.5919 27.6753 17.4243C27.8035 17.2567 27.8972 17.0654 27.9512 16.8614C28.0051 16.6574 28.0181 16.4447 27.9896 16.2356C27.961 16.0266 27.8913 15.8252 27.7846 15.6432L26.9846 14.2592C26.7709 13.8947 26.4218 13.6295 26.0133 13.5215C25.6048 13.4135 25.1702 13.4715 24.8043 13.6828C24.4384 13.894 24.1709 14.2414 24.0602 14.6492C23.9495 15.0569 24.0046 15.4919 24.2134 15.8592L25.0134 17.2432ZM52.3243 62.5815C52.4523 62.4146 52.612 62.2747 52.7942 62.1696C52.9762 62.0647 53.1772 61.9966 53.3856 61.9693C53.5939 61.9419 53.8056 61.956 54.0086 62.0105C54.2116 62.065 54.4018 62.159 54.5684 62.2871C54.7351 62.4151 54.8748 62.5747 54.9798 62.7568L55.7798 64.1424C55.9886 64.5097 56.0436 64.9447 55.9329 65.3524C55.8222 65.7602 55.5548 66.1076 55.1889 66.3189C54.823 66.5301 54.3884 66.5881 53.9799 66.4801C53.5714 66.3721 53.2222 66.1069 53.0086 65.7424L52.2086 64.3568C52.1033 64.1748 52.0349 63.9738 52.0073 63.7653C51.9798 63.5568 51.9936 63.345 52.048 63.1418C52.1024 62.9387 52.1963 62.7483 52.3243 62.5815ZM62.7558 54.9857L64.1398 55.7857C64.3218 55.8924 64.5232 55.962 64.7322 55.9906C64.9413 56.0192 65.1539 56.0062 65.3579 55.9522C65.5619 55.8983 65.7532 55.8045 65.9209 55.6764C66.0885 55.5482 66.2291 55.3881 66.3346 55.2054C66.4401 55.0227 66.5084 54.8209 66.5356 54.6116C66.5628 54.4024 66.5484 54.1898 66.4931 53.9862C66.4378 53.7825 66.3428 53.5918 66.2135 53.4251C66.0842 53.2583 65.9232 53.1188 65.7398 53.0145L64.3558 52.2145C63.9885 52.0056 63.5535 51.9506 63.1458 52.0613C62.738 52.172 62.3906 52.4395 62.1793 52.8054C61.9681 53.1713 61.9101 53.6059 62.0181 54.0143C62.1261 54.4228 62.3913 54.772 62.7558 54.9857ZM15.8582 24.2145L17.2422 25.0145C17.6067 25.2281 17.8718 25.5773 17.9798 25.9858C18.0878 26.3943 18.0299 26.8289 17.8186 27.1948C17.6073 27.5607 17.2599 27.8282 16.8522 27.9389C16.4444 28.0496 16.0095 27.9945 15.6422 27.7857L14.2582 26.9857C13.8937 26.772 13.6285 26.4228 13.5205 26.0143C13.4125 25.6059 13.4705 25.1713 13.6817 24.8054C13.893 24.4395 14.2404 24.172 14.6481 24.0613C15.0559 23.9506 15.4909 24.0056 15.8582 24.2145ZM24.7942 66.328C25.1617 66.5402 25.5984 66.5977 26.0083 66.4879C26.4182 66.378 26.7676 66.1099 26.9798 65.7424L27.7798 64.3568C27.8865 64.1748 27.9562 63.9735 27.9848 63.7644C28.0134 63.5553 28.0003 63.3427 27.9464 63.1387C27.8924 62.9347 27.7987 62.7434 27.6705 62.5757C27.5423 62.4081 27.3823 62.2675 27.1995 62.162C27.0168 62.0565 26.815 61.9882 26.6058 61.961C26.3965 61.9338 26.184 61.9482 25.9803 62.0035C25.7767 62.0588 25.586 62.1538 25.4192 62.2831C25.2525 62.4124 25.1129 62.5734 25.0086 62.7568L24.2086 64.1424C23.9965 64.5099 23.939 64.9466 24.0488 65.3565C24.1586 65.7664 24.4267 66.1159 24.7942 66.328ZM53.9801 13.5137C54.3899 13.4039 54.8266 13.4614 55.1941 13.6736C55.5616 13.8858 55.8298 14.2352 55.9396 14.6451C56.0494 15.055 55.9919 15.4917 55.7797 15.8592L54.9797 17.2432C54.8754 17.4266 54.7359 17.5876 54.5691 17.7169C54.4024 17.8462 54.2117 17.9412 54.008 17.9965C53.8044 18.0518 53.5919 18.0662 53.3826 18.039C53.1734 18.0118 52.9715 17.9435 52.7888 17.838C52.6061 17.7325 52.446 17.5919 52.3178 17.4243C52.1897 17.2567 52.0959 17.0653 52.042 16.8613C51.988 16.6573 51.975 16.4447 52.0036 16.2356C52.0322 16.0266 52.1018 15.8252 52.2085 15.6432L53.0085 14.2592C53.2207 13.8917 53.5702 13.6236 53.9801 13.5137Z"/>
        </mask>
        <path fill-rule="evenodd" clip-rule="evenodd" d="M38.8629 10.0686C39.1629 9.76855 39.5699 9.59998 39.9942 9.59998C40.4186 9.59998 40.8256 9.76855 41.1256 10.0686C41.4257 10.3687 41.5942 10.7756 41.5942 11.2V12.8C41.5942 13.2243 41.4257 13.6313 41.1256 13.9313C40.8256 14.2314 40.4186 14.4 39.9942 14.4C39.5699 14.4 39.1629 14.2314 38.8629 13.9313C38.5628 13.6313 38.3942 13.2243 38.3942 12.8V11.2C38.3942 10.7756 38.5628 10.3687 38.8629 10.0686ZM41.1256 69.9314C40.8256 70.2314 40.4186 70.4 39.9942 70.4C39.5699 70.4 39.1629 70.2314 38.8629 69.9314C38.5628 69.6313 38.3942 69.2243 38.3942 68.8V67.2C38.3942 66.7756 38.5628 66.3687 38.8629 66.0686C39.1629 65.7685 39.5699 65.6 39.9942 65.6C40.4186 65.6 40.8256 65.7685 41.1256 66.0686C41.4257 66.3687 41.5942 66.7756 41.5942 67.2V68.8C41.5942 69.2243 41.4257 69.6313 41.1256 69.9314ZM65.5942 40C65.5942 40.4243 65.7628 40.8313 66.0629 41.1313C66.3629 41.4314 66.7699 41.6 67.1942 41.6H68.7942C69.2186 41.6 69.6256 41.4314 69.9256 41.1313C70.2257 40.8313 70.3942 40.4243 70.3942 40C70.3942 39.5756 70.2257 39.1686 69.9256 38.8686C69.6256 38.5685 69.2186 38.4 68.7942 38.4H67.1942C66.7699 38.4 66.3629 38.5685 66.0629 38.8686C65.7628 39.1686 65.5942 39.5756 65.5942 40ZM13.9256 38.8686C14.2257 39.1686 14.3942 39.5756 14.3942 40C14.3942 40.4243 14.2257 40.8313 13.9256 41.1313C13.6256 41.4314 13.2186 41.6 12.7942 41.6H11.1942C10.7699 41.6 10.3629 41.4314 10.0629 41.1313C9.76281 40.8313 9.59424 40.4243 9.59424 40C9.59424 39.5756 9.76281 39.1686 10.0629 38.8686C10.3629 38.5685 10.7699 38.4 11.1942 38.4H12.7942C13.2186 38.4 13.6256 38.5685 13.9256 38.8686ZM15.8582 55.7857L17.2422 54.9857C17.6067 54.772 17.8718 54.4228 17.9798 54.0143C18.0878 53.6059 18.0299 53.1713 17.8186 52.8054C17.6073 52.4395 17.2599 52.172 16.8522 52.0613C16.4444 51.9506 16.0095 52.0056 15.6422 52.2145L14.2582 53.0145C13.8937 53.2281 13.6285 53.5773 13.5205 53.9858C13.4125 54.3943 13.4705 54.8289 13.6817 55.1948C13.893 55.5607 14.2404 55.8282 14.6481 55.9389C15.0559 56.0496 15.4909 55.9945 15.8582 55.7857ZM62.7558 25.0145L64.1398 24.2145C64.5071 24.0056 64.942 23.9506 65.3498 24.0613C65.7575 24.172 66.1049 24.4395 66.3162 24.8054C66.5275 25.1713 66.5854 25.6059 66.4774 26.0143C66.3694 26.4228 66.1042 26.772 65.7398 26.9857L64.3558 27.7857C64.1737 27.8924 63.9724 27.962 63.7633 27.9906C63.5543 28.0192 63.3416 28.0062 63.1376 27.9522C62.9336 27.8983 62.7423 27.8045 62.5747 27.6764C62.4071 27.5482 62.2665 27.3881 62.161 27.2054C62.0555 27.0226 61.9871 26.8208 61.9599 26.6116C61.9327 26.4024 61.9472 26.1898 62.0025 25.9862C62.0578 25.7825 62.1528 25.5918 62.2821 25.4251C62.4114 25.2583 62.5724 25.1188 62.7558 25.0145ZM25.0134 17.2432C25.1177 17.4266 25.2573 17.5876 25.424 17.7169C25.5908 17.8462 25.7815 17.9412 25.9851 17.9965C26.1887 18.0518 26.4013 18.0662 26.6106 18.039C26.8198 18.0118 27.0216 17.9435 27.2043 17.838C27.3871 17.7325 27.5471 17.5919 27.6753 17.4243C27.8035 17.2567 27.8972 17.0654 27.9512 16.8614C28.0051 16.6574 28.0181 16.4447 27.9896 16.2356C27.961 16.0266 27.8913 15.8252 27.7846 15.6432L26.9846 14.2592C26.7709 13.8947 26.4218 13.6295 26.0133 13.5215C25.6048 13.4135 25.1702 13.4715 24.8043 13.6828C24.4384 13.894 24.1709 14.2414 24.0602 14.6492C23.9495 15.0569 24.0046 15.4919 24.2134 15.8592L25.0134 17.2432ZM52.3243 62.5815C52.4523 62.4146 52.612 62.2747 52.7942 62.1696C52.9762 62.0647 53.1772 61.9966 53.3856 61.9693C53.5939 61.9419 53.8056 61.956 54.0086 62.0105C54.2116 62.065 54.4018 62.159 54.5684 62.2871C54.7351 62.4151 54.8748 62.5747 54.9798 62.7568L55.7798 64.1424C55.9886 64.5097 56.0436 64.9447 55.9329 65.3524C55.8222 65.7602 55.5548 66.1076 55.1889 66.3189C54.823 66.5301 54.3884 66.5881 53.9799 66.4801C53.5714 66.3721 53.2222 66.1069 53.0086 65.7424L52.2086 64.3568C52.1033 64.1748 52.0349 63.9738 52.0073 63.7653C51.9798 63.5568 51.9936 63.345 52.048 63.1418C52.1024 62.9387 52.1963 62.7483 52.3243 62.5815ZM62.7558 54.9857L64.1398 55.7857C64.3218 55.8924 64.5232 55.962 64.7322 55.9906C64.9413 56.0192 65.1539 56.0062 65.3579 55.9522C65.5619 55.8983 65.7532 55.8045 65.9209 55.6764C66.0885 55.5482 66.2291 55.3881 66.3346 55.2054C66.4401 55.0227 66.5084 54.8209 66.5356 54.6116C66.5628 54.4024 66.5484 54.1898 66.4931 53.9862C66.4378 53.7825 66.3428 53.5918 66.2135 53.4251C66.0842 53.2583 65.9232 53.1188 65.7398 53.0145L64.3558 52.2145C63.9885 52.0056 63.5535 51.9506 63.1458 52.0613C62.738 52.172 62.3906 52.4395 62.1793 52.8054C61.9681 53.1713 61.9101 53.6059 62.0181 54.0143C62.1261 54.4228 62.3913 54.772 62.7558 54.9857ZM15.8582 24.2145L17.2422 25.0145C17.6067 25.2281 17.8718 25.5773 17.9798 25.9858C18.0878 26.3943 18.0299 26.8289 17.8186 27.1948C17.6073 27.5607 17.2599 27.8282 16.8522 27.9389C16.4444 28.0496 16.0095 27.9945 15.6422 27.7857L14.2582 26.9857C13.8937 26.772 13.6285 26.4228 13.5205 26.0143C13.4125 25.6059 13.4705 25.1713 13.6817 24.8054C13.893 24.4395 14.2404 24.172 14.6481 24.0613C15.0559 23.9506 15.4909 24.0056 15.8582 24.2145ZM24.7942 66.328C25.1617 66.5402 25.5984 66.5977 26.0083 66.4879C26.4182 66.378 26.7676 66.1099 26.9798 65.7424L27.7798 64.3568C27.8865 64.1748 27.9562 63.9735 27.9848 63.7644C28.0134 63.5553 28.0003 63.3427 27.9464 63.1387C27.8924 62.9347 27.7987 62.7434 27.6705 62.5757C27.5423 62.4081 27.3823 62.2675 27.1995 62.162C27.0168 62.0565 26.815 61.9882 26.6058 61.961C26.3965 61.9338 26.184 61.9482 25.9803 62.0035C25.7767 62.0588 25.586 62.1538 25.4192 62.2831C25.2525 62.4124 25.1129 62.5734 25.0086 62.7568L24.2086 64.1424C23.9965 64.5099 23.939 64.9466 24.0488 65.3565C24.1586 65.7664 24.4267 66.1159 24.7942 66.328ZM53.9801 13.5137C54.3899 13.4039 54.8266 13.4614 55.1941 13.6736C55.5616 13.8858 55.8298 14.2352 55.9396 14.6451C56.0494 15.055 55.9919 15.4917 55.7797 15.8592L54.9797 17.2432C54.8754 17.4266 54.7359 17.5876 54.5691 17.7169C54.4024 17.8462 54.2117 17.9412 54.008 17.9965C53.8044 18.0518 53.5919 18.0662 53.3826 18.039C53.1734 18.0118 52.9715 17.9435 52.7888 17.838C52.6061 17.7325 52.446 17.5919 52.3178 17.4243C52.1897 17.2567 52.0959 17.0653 52.042 16.8613C51.988 16.6573 51.975 16.4447 52.0036 16.2356C52.0322 16.0266 52.1018 15.8252 52.2085 15.6432L53.0085 14.2592C53.2207 13.8917 53.5702 13.6236 53.9801 13.5137Z" fill="#C4C4C4"/>
        <path d="M38.8629 10.0686L39.57 10.7757L39.57 10.7757L38.8629 10.0686ZM41.1256 10.0686L40.4185 10.7757L40.4185 10.7757L41.1256 10.0686ZM41.1256 13.9313L40.4185 13.2242L40.4185 13.2242L41.1256 13.9313ZM38.8629 13.9313L39.57 13.2242L39.57 13.2242L38.8629 13.9313ZM41.1256 69.9314L41.8327 70.6385H41.8327L41.1256 69.9314ZM38.8629 69.9314L38.1558 70.6385H38.1558L38.8629 69.9314ZM38.8629 66.0686L38.1558 65.3615H38.1558L38.8629 66.0686ZM41.1256 66.0686L41.8327 65.3615H41.8327L41.1256 66.0686ZM66.0629 41.1313L65.3558 41.8384L65.3558 41.8384L66.0629 41.1313ZM69.9256 41.1313L70.6327 41.8384L70.6327 41.8384L69.9256 41.1313ZM69.9256 38.8686L70.6327 38.1615L70.6327 38.1615L69.9256 38.8686ZM66.0629 38.8686L65.3558 38.1615L65.3558 38.1615L66.0629 38.8686ZM13.9256 38.8686L14.6327 38.1615L14.6327 38.1615L13.9256 38.8686ZM13.9256 41.1313L14.6327 41.8384H14.6327L13.9256 41.1313ZM10.0629 41.1313L9.35576 41.8384H9.35576L10.0629 41.1313ZM10.0629 38.8686L9.35576 38.1615L9.35576 38.1615L10.0629 38.8686ZM17.2422 54.9857L17.7426 55.8515L17.7479 55.8484L17.2422 54.9857ZM15.8582 55.7857L16.3524 56.655L16.3586 56.6514L15.8582 55.7857ZM17.9798 54.0143L18.9466 54.2699H18.9466L17.9798 54.0143ZM17.8186 52.8054L16.9526 53.3054L16.9526 53.3054L17.8186 52.8054ZM16.8522 52.0613L16.5902 53.0263H16.5902L16.8522 52.0613ZM15.6422 52.2145L15.1479 51.3451L15.1417 51.3487L15.6422 52.2145ZM14.2582 53.0145L13.7577 52.1487L13.7524 52.1518L14.2582 53.0145ZM13.5205 53.9858L12.5537 53.7302L12.5537 53.7302L13.5205 53.9858ZM13.6817 55.1948L14.5477 54.6948L14.5477 54.6948L13.6817 55.1948ZM14.6481 55.9389L14.9101 54.9738H14.9101L14.6481 55.9389ZM64.1398 24.2145L63.6455 23.3451L63.6393 23.3487L64.1398 24.2145ZM62.7558 25.0145L63.2501 25.8838L63.2562 25.8802L62.7558 25.0145ZM65.7398 26.9857L66.2402 27.8514L66.2455 27.8483L65.7398 26.9857ZM64.3558 27.7857L63.8553 26.9199L63.85 26.923L64.3558 27.7857ZM63.1376 27.9522L63.3932 26.9854L63.3932 26.9854L63.1376 27.9522ZM62.5747 27.6764L61.9673 28.4707L61.9673 28.4707L62.5747 27.6764ZM62.161 27.2054L63.027 26.7054L63.027 26.7054L62.161 27.2054ZM61.9599 26.6116L60.9683 26.7405L60.9683 26.7405L61.9599 26.6116ZM62.0025 25.9862L62.9676 26.2482L62.9676 26.2482L62.0025 25.9862ZM62.2821 25.4251L61.4918 24.8124L61.4917 24.8124L62.2821 25.4251ZM25.424 17.7169L24.8113 18.5072L24.8113 18.5072L25.424 17.7169ZM25.0134 17.2432L25.8828 16.7489L25.8792 16.7428L25.0134 17.2432ZM25.9851 17.9965L26.2471 17.0314L26.2471 17.0314L25.9851 17.9965ZM26.6106 18.039L26.7394 19.0307H26.7395L26.6106 18.039ZM27.2043 17.838L26.7043 16.972L26.7043 16.972L27.2043 17.838ZM27.6753 17.4243L26.8809 16.8168L26.8809 16.8169L27.6753 17.4243ZM27.9512 16.8614L28.9179 17.117L28.9179 17.1169L27.9512 16.8614ZM27.9896 16.2356L26.9988 16.3711V16.3711L27.9896 16.2356ZM27.7846 15.6432L26.9188 16.1436L26.9219 16.1489L27.7846 15.6432ZM26.9846 14.2592L27.8504 13.7587L27.8473 13.7535L26.9846 14.2592ZM26.0133 13.5215L25.7577 14.4883L26.0133 13.5215ZM24.8043 13.6828L24.3043 12.8167V12.8167L24.8043 13.6828ZM24.0602 14.6492L25.0253 14.9112V14.9112L24.0602 14.6492ZM24.2134 15.8592L23.3441 16.3535L23.3477 16.3596L24.2134 15.8592ZM52.7942 62.1696L52.2946 61.3034L52.2946 61.3034L52.7942 62.1696ZM52.3243 62.5815L53.1176 63.1903L53.1176 63.1903L52.3243 62.5815ZM53.3856 61.9693L53.2556 60.9777L53.2556 60.9777L53.3856 61.9693ZM54.0086 62.0105L54.2681 61.0447L54.2681 61.0447L54.0086 62.0105ZM54.5684 62.2871L53.9591 63.0799L53.9591 63.08L54.5684 62.2871ZM54.9798 62.7568L54.1133 63.2561L54.1137 63.2568L54.9798 62.7568ZM55.7798 64.1424L56.6491 63.6482L56.6458 63.6424L55.7798 64.1424ZM55.9329 65.3524L54.9679 65.0904L54.9679 65.0904L55.9329 65.3524ZM55.1889 66.3189L55.6889 67.1849L55.6889 67.1849L55.1889 66.3189ZM53.9799 66.4801L54.2355 65.5133L54.2355 65.5133L53.9799 66.4801ZM53.0086 65.7424L52.1425 66.2424L52.1459 66.2482L53.0086 65.7424ZM52.2086 64.3568L53.0746 63.8568L53.0742 63.8561L52.2086 64.3568ZM52.0073 63.7653L51.016 63.8964V63.8964L52.0073 63.7653ZM64.1398 55.7857L64.6455 54.923L64.6402 54.9199L64.1398 55.7857ZM62.7558 54.9857L62.25 55.8484L62.2553 55.8514L62.7558 54.9857ZM64.7322 55.9906L64.8677 54.9999L64.8677 54.9998L64.7322 55.9906ZM65.3579 55.9522L65.6135 56.919L65.6135 56.919L65.3579 55.9522ZM66.3346 55.2054L65.4686 54.7054L65.4686 54.7054L66.3346 55.2054ZM66.5356 54.6116L67.5273 54.7405L66.5356 54.6116ZM66.4931 53.9862L65.528 54.2482V54.2482L66.4931 53.9862ZM66.2135 53.4251L67.0038 52.8124L67.0038 52.8124L66.2135 53.4251ZM65.7398 53.0145L65.2393 53.8803L65.2455 53.8838L65.7398 53.0145ZM64.3558 52.2145L64.8562 51.3487L64.85 51.3452L64.3558 52.2145ZM63.1458 52.0613L63.4078 53.0263L63.4078 53.0263L63.1458 52.0613ZM62.1793 52.8054L61.3133 52.3053L61.3133 52.3054L62.1793 52.8054ZM17.2422 25.0145L17.7479 24.1518L17.7426 24.1487L17.2422 25.0145ZM15.8582 24.2145L16.3586 23.3487L16.3524 23.3451L15.8582 24.2145ZM17.9798 25.9858L17.013 26.2414L17.013 26.2414L17.9798 25.9858ZM17.8186 27.1948L16.9526 26.6948L16.9526 26.6948L17.8186 27.1948ZM16.8522 27.9389L17.1142 28.9039H17.1142L16.8522 27.9389ZM15.6422 27.7857L15.1417 28.6515L15.1479 28.655L15.6422 27.7857ZM14.2582 26.9857L13.7524 27.8484L13.7577 27.8514L14.2582 26.9857ZM13.5205 26.0143L14.4873 25.7587L13.5205 26.0143ZM13.6817 24.8054L12.8157 24.3053L13.6817 24.8054ZM14.6481 24.0613L14.9101 25.0263H14.9101L14.6481 24.0613ZM26.0083 66.4879L25.7495 65.5219L26.0083 66.4879ZM24.7942 66.328L24.2942 67.194L24.2942 67.1941L24.7942 66.328ZM26.9798 65.7424L27.8458 66.2425L27.8458 66.2424L26.9798 65.7424ZM27.7798 64.3568L26.9171 63.8511L26.9138 63.8568L27.7798 64.3568ZM27.9464 63.1387L28.9132 62.8831L28.9132 62.8831L27.9464 63.1387ZM27.6705 62.5757L28.4649 61.9683L28.4649 61.9683L27.6705 62.5757ZM27.1995 62.162L26.6995 63.028L26.6995 63.028L27.1995 62.162ZM26.6058 61.961L26.4769 62.9526L26.6058 61.961ZM25.9803 62.0035L25.7183 61.0385L25.7183 61.0385L25.9803 62.0035ZM25.4192 62.2831L24.8065 61.4928L24.8065 61.4928L25.4192 62.2831ZM25.0086 62.7568L25.8747 63.2568L25.8779 63.2511L25.0086 62.7568ZM24.2086 64.1424L23.3426 63.6424L23.3426 63.6424L24.2086 64.1424ZM24.0488 65.3565L25.0147 65.0977V65.0977L24.0488 65.3565ZM55.1941 13.6736L55.6942 12.8076L55.6941 12.8076L55.1941 13.6736ZM53.9801 13.5137L54.2389 14.4797L54.2389 14.4797L53.9801 13.5137ZM55.9396 14.6451L56.9055 14.3863L56.9055 14.3863L55.9396 14.6451ZM55.7797 15.8592L56.6455 16.3596L56.6458 16.3592L55.7797 15.8592ZM54.9797 17.2432L54.1139 16.7427L54.1104 16.7489L54.9797 17.2432ZM54.5691 17.7169L53.9565 16.9266L53.9564 16.9266L54.5691 17.7169ZM54.008 17.9965L54.2701 18.9615L54.2701 18.9615L54.008 17.9965ZM52.042 16.8613L51.0752 17.1169L51.0752 17.1169L52.042 16.8613ZM52.0036 16.2356L52.9944 16.3711L52.9944 16.3711L52.0036 16.2356ZM52.2085 15.6432L53.0712 16.1489L53.0743 16.1436L52.2085 15.6432ZM53.0085 14.2592L53.8743 14.7596L53.8745 14.7592L53.0085 14.2592ZM39.9942 8.59998C39.3047 8.59998 38.6433 8.8739 38.1558 9.3615L39.57 10.7757C39.6825 10.6632 39.8351 10.6 39.9942 10.6V8.59998ZM41.8327 9.3615C41.3451 8.8739 40.6838 8.59998 39.9942 8.59998V10.6C40.1534 10.6 40.306 10.6632 40.4185 10.7757L41.8327 9.3615ZM42.5942 11.2C42.5942 10.5104 42.3203 9.84909 41.8327 9.3615L40.4185 10.7757C40.531 10.8882 40.5942 11.0408 40.5942 11.2H42.5942ZM42.5942 12.8V11.2H40.5942V12.8H42.5942ZM41.8327 14.6385C42.3203 14.1509 42.5942 13.4895 42.5942 12.8H40.5942C40.5942 12.9591 40.531 13.1117 40.4185 13.2242L41.8327 14.6385ZM39.9942 15.4C40.6838 15.4 41.3451 15.126 41.8327 14.6385L40.4185 13.2242C40.306 13.3368 40.1534 13.4 39.9942 13.4V15.4ZM38.1558 14.6385C38.6433 15.126 39.3047 15.4 39.9942 15.4V13.4C39.8351 13.4 39.6825 13.3368 39.57 13.2242L38.1558 14.6385ZM37.3942 12.8C37.3942 13.4895 37.6682 14.1509 38.1558 14.6385L39.57 13.2242C39.4574 13.1117 39.3942 12.9591 39.3942 12.8H37.3942ZM37.3942 11.2V12.8H39.3942V11.2H37.3942ZM38.1558 9.3615C37.6682 9.84909 37.3942 10.5104 37.3942 11.2H39.3942C39.3942 11.0408 39.4574 10.8882 39.57 10.7757L38.1558 9.3615ZM39.9942 71.4C40.6838 71.4 41.3451 71.1261 41.8327 70.6385L40.4185 69.2242C40.306 69.3368 40.1534 69.4 39.9942 69.4V71.4ZM38.1558 70.6385C38.6433 71.1261 39.3047 71.4 39.9942 71.4V69.4C39.8351 69.4 39.6825 69.3368 39.57 69.2242L38.1558 70.6385ZM37.3942 68.8C37.3942 69.4895 37.6682 70.1509 38.1558 70.6385L39.57 69.2242C39.4574 69.1117 39.3942 68.9591 39.3942 68.8H37.3942ZM37.3942 67.2V68.8H39.3942V67.2H37.3942ZM38.1558 65.3615C37.6682 65.8491 37.3942 66.5104 37.3942 67.2H39.3942C39.3942 67.0408 39.4574 66.8882 39.57 66.7757L38.1558 65.3615ZM39.9942 64.6C39.3047 64.6 38.6433 64.8739 38.1558 65.3615L39.57 66.7757C39.6825 66.6632 39.8351 66.6 39.9942 66.6V64.6ZM41.8327 65.3615C41.3451 64.8739 40.6838 64.6 39.9942 64.6V66.6C40.1534 66.6 40.306 66.6632 40.4185 66.7757L41.8327 65.3615ZM42.5942 67.2C42.5942 66.5104 42.3203 65.8491 41.8327 65.3615L40.4185 66.7757C40.531 66.8882 40.5942 67.0408 40.5942 67.2H42.5942ZM42.5942 68.8V67.2H40.5942V68.8H42.5942ZM41.8327 70.6385C42.3203 70.1509 42.5942 69.4895 42.5942 68.8H40.5942C40.5942 68.9591 40.531 69.1117 40.4185 69.2242L41.8327 70.6385ZM66.77 40.4242C66.6575 40.3117 66.5942 40.1591 66.5942 40H64.5942C64.5942 40.6895 64.8682 41.3508 65.3558 41.8384L66.77 40.4242ZM67.1942 40.6C67.0351 40.6 66.8825 40.5367 66.77 40.4242L65.3558 41.8384C65.8434 42.326 66.5047 42.6 67.1942 42.6V40.6ZM68.7942 40.6H67.1942V42.6H68.7942V40.6ZM69.2185 40.4242C69.106 40.5367 68.9534 40.6 68.7942 40.6V42.6C69.4838 42.6 70.1451 42.326 70.6327 41.8384L69.2185 40.4242ZM69.3942 40C69.3942 40.1591 69.331 40.3117 69.2185 40.4242L70.6327 41.8384C71.1203 41.3508 71.3942 40.6895 71.3942 40H69.3942ZM69.2185 39.5757C69.331 39.6882 69.3942 39.8408 69.3942 40H71.3942C71.3942 39.3104 71.1203 38.6491 70.6327 38.1615L69.2185 39.5757ZM68.7942 39.4C68.9534 39.4 69.106 39.4632 69.2185 39.5757L70.6327 38.1615C70.1451 37.6739 69.4838 37.4 68.7942 37.4V39.4ZM67.1942 39.4H68.7942V37.4H67.1942V39.4ZM66.77 39.5757C66.8825 39.4632 67.0351 39.4 67.1942 39.4V37.4C66.5047 37.4 65.8434 37.6739 65.3558 38.1615L66.77 39.5757ZM66.5942 40C66.5942 39.8408 66.6575 39.6882 66.77 39.5757L65.3558 38.1615C64.8682 38.6491 64.5942 39.3104 64.5942 40H66.5942ZM15.3942 40C15.3942 39.3104 15.1203 38.6491 14.6327 38.1615L13.2185 39.5757C13.331 39.6882 13.3942 39.8408 13.3942 40H15.3942ZM14.6327 41.8384C15.1203 41.3508 15.3942 40.6895 15.3942 40H13.3942C13.3942 40.1591 13.331 40.3117 13.2185 40.4242L14.6327 41.8384ZM12.7942 42.6C13.4838 42.6 14.1451 42.326 14.6327 41.8384L13.2185 40.4242C13.106 40.5367 12.9534 40.6 12.7942 40.6V42.6ZM11.1942 42.6H12.7942V40.6H11.1942V42.6ZM9.35576 41.8384C9.84336 42.326 10.5047 42.6 11.1942 42.6V40.6C11.0351 40.6 10.8825 40.5367 10.77 40.4242L9.35576 41.8384ZM8.59424 40C8.59424 40.6895 8.86817 41.3508 9.35576 41.8384L10.77 40.4242C10.6575 40.3117 10.5942 40.1591 10.5942 40H8.59424ZM9.35576 38.1615C8.86817 38.6491 8.59424 39.3104 8.59424 40H10.5942C10.5942 39.8408 10.6575 39.6882 10.77 39.5757L9.35576 38.1615ZM11.1942 37.4C10.5047 37.4 9.84336 37.6739 9.35576 38.1615L10.77 39.5757C10.8825 39.4632 11.0351 39.4 11.1942 39.4V37.4ZM12.7942 37.4H11.1942V39.4H12.7942V37.4ZM14.6327 38.1615C14.1451 37.6739 13.4838 37.4 12.7942 37.4V39.4C12.9534 39.4 13.106 39.4632 13.2185 39.5757L14.6327 38.1615ZM16.7417 54.1199L15.3577 54.9199L16.3586 56.6514L17.7426 55.8514L16.7417 54.1199ZM17.013 53.7587C16.9725 53.9119 16.8731 54.0429 16.7364 54.123L17.7479 55.8484C18.3402 55.5011 18.7711 54.9337 18.9466 54.2699L17.013 53.7587ZM16.9526 53.3054C17.0318 53.4426 17.0535 53.6056 17.013 53.7587L18.9466 54.2699C19.1221 53.6062 19.0279 52.8999 18.6846 52.3054L16.9526 53.3054ZM16.5902 53.0263C16.7431 53.0678 16.8734 53.1682 16.9526 53.3054L18.6846 52.3054C18.3413 51.7108 17.7768 51.2761 17.1142 51.0962L16.5902 53.0263ZM16.1364 53.0838C16.2742 53.0055 16.4373 52.9848 16.5902 53.0263L17.1142 51.0962C16.4516 50.9163 15.7448 51.0058 15.1479 51.3452L16.1364 53.0838ZM14.7586 53.8802L16.1426 53.0802L15.1417 51.3487L13.7577 52.1487L14.7586 53.8802ZM14.4873 54.2414C14.5278 54.0882 14.6272 53.9573 14.7639 53.8772L13.7524 52.1518C13.1601 52.499 12.7292 53.0664 12.5537 53.7302L14.4873 54.2414ZM14.5477 54.6948C14.4685 54.5576 14.4468 54.3946 14.4873 54.2414L12.5537 53.7302C12.3782 54.394 12.4724 55.1002 12.8157 55.6948L14.5477 54.6948ZM14.9101 54.9738C14.7572 54.9323 14.627 54.832 14.5477 54.6948L12.8157 55.6948C13.159 56.2894 13.7235 56.724 14.3861 56.9039L14.9101 54.9738ZM15.3639 54.9164C15.2262 54.9947 15.0631 55.0153 14.9101 54.9738L14.3861 56.9039C15.0487 57.0838 15.7556 56.9943 16.3524 56.655L15.3639 54.9164ZM63.6393 23.3487L62.2553 24.1487L63.2562 25.8802L64.6402 25.0802L63.6393 23.3487ZM65.6118 23.0962C64.9492 22.9163 64.2424 23.0058 63.6455 23.3452L64.634 25.0838C64.7718 25.0055 64.9349 24.9848 65.0878 25.0263L65.6118 23.0962ZM67.1822 24.3053C66.8389 23.7108 66.2744 23.2761 65.6118 23.0962L65.0878 25.0263C65.2407 25.0678 65.371 25.1682 65.4502 25.3054L67.1822 24.3053ZM67.4442 26.2699C67.6197 25.6062 67.5255 24.8999 67.1822 24.3053L65.4502 25.3054C65.5294 25.4426 65.5511 25.6055 65.5106 25.7587L67.4442 26.2699ZM66.2455 27.8483C66.8378 27.5011 67.2687 26.9337 67.4442 26.2699L65.5106 25.7587C65.4701 25.9119 65.3707 26.0429 65.234 26.123L66.2455 27.8483ZM64.8562 28.6514L66.2402 27.8514L65.2393 26.1199L63.8553 26.9199L64.8562 28.6514ZM63.8988 28.9814C64.2385 28.9349 64.5657 28.8218 64.8615 28.6483L63.85 26.923C63.7818 26.963 63.7063 26.9891 63.6279 26.9998L63.8988 28.9814ZM62.882 28.919C63.2135 29.0066 63.5591 29.0279 63.8988 28.9814L63.6279 26.9998C63.5495 27.0106 63.4697 27.0057 63.3932 26.9854L62.882 28.919ZM61.9673 28.4707C62.2396 28.679 62.5505 28.8314 62.882 28.919L63.3932 26.9854C63.3167 26.9652 63.245 26.9301 63.1821 26.882L61.9673 28.4707ZM61.2949 27.7054C61.4664 28.0023 61.6949 28.2624 61.9673 28.4707L63.1821 26.882C63.1193 26.8339 63.0665 26.7739 63.027 26.7054L61.2949 27.7054ZM60.9683 26.7405C61.0125 27.0805 61.1235 27.4085 61.2949 27.7054L63.027 26.7054C62.9874 26.6368 62.9618 26.5612 62.9516 26.4827L60.9683 26.7405ZM61.0374 25.7241C60.9476 26.055 60.9241 26.4004 60.9683 26.7405L62.9516 26.4827C62.9414 26.4043 62.9468 26.3245 62.9676 26.2482L61.0374 25.7241ZM61.4917 24.8124C61.2817 25.0834 61.1273 25.3933 61.0374 25.7242L62.9676 26.2482C62.9883 26.1718 63.0239 26.1003 63.0724 26.0378L61.4917 24.8124ZM62.2615 24.1452C61.9635 24.3146 61.7018 24.5414 61.4918 24.8124L63.0724 26.0378C63.1209 25.9752 63.1812 25.9229 63.25 25.8838L62.2615 24.1452ZM26.0367 16.9266C25.9742 16.8781 25.9219 16.8177 25.8827 16.7489L24.1441 17.7375C24.3136 18.0355 24.5403 18.2971 24.8113 18.5072L26.0367 16.9266ZM26.2471 17.0314C26.1708 17.0107 26.0992 16.9751 26.0367 16.9266L24.8113 18.5072C25.0823 18.7173 25.3922 18.8717 25.7231 18.9616L26.2471 17.0314ZM26.4817 17.0474C26.4032 17.0576 26.3235 17.0522 26.2471 17.0314L25.7231 18.9616C26.054 19.0514 26.3994 19.0749 26.7394 19.0307L26.4817 17.0474ZM26.7043 16.972C26.6358 17.0116 26.5601 17.0372 26.4817 17.0474L26.7395 19.0307C27.0795 18.9865 27.4074 18.8755 27.7044 18.704L26.7043 16.972ZM26.8809 16.8169C26.8329 16.8797 26.7728 16.9324 26.7043 16.972L27.7043 18.704C28.0013 18.5326 28.2614 18.3041 28.4697 18.0317L26.8809 16.8169ZM26.9844 16.6057C26.9642 16.6823 26.929 16.754 26.8809 16.8168L28.4697 18.0317C28.678 17.7593 28.8303 17.4484 28.9179 17.117L26.9844 16.6057ZM26.9988 16.3711C27.0095 16.4495 27.0046 16.5292 26.9844 16.6058L28.9179 17.1169C29.0056 16.7855 29.0268 16.4399 28.9803 16.1002L26.9988 16.3711ZM26.9219 16.1489C26.9619 16.2172 26.9881 16.2927 26.9988 16.3711L28.9803 16.1002C28.9339 15.7604 28.8207 15.4333 28.6473 15.1375L26.9219 16.1489ZM26.1188 14.7596L26.9188 16.1436L28.6504 15.1428L27.8504 13.7588L26.1188 14.7596ZM25.7577 14.4883C25.9109 14.5288 26.0418 14.6283 26.1219 14.7649L27.8473 13.7535C27.5001 13.1612 26.9327 12.7302 26.2689 12.5548L25.7577 14.4883ZM25.3043 14.5488C25.4415 14.4696 25.6045 14.4478 25.7577 14.4883L26.2689 12.5548C25.6051 12.3793 24.8989 12.4734 24.3043 12.8167L25.3043 14.5488ZM25.0253 14.9112C25.0668 14.7583 25.1671 14.628 25.3043 14.5488L24.3043 12.8167C23.7097 13.16 23.2751 13.7246 23.0952 14.3872L25.0253 14.9112ZM25.0827 15.3649C25.0044 15.2272 24.9838 15.0641 25.0253 14.9112L23.0952 14.3872C22.9153 15.0498 23.0048 15.7566 23.3441 16.3535L25.0827 15.3649ZM25.8792 16.7428L25.0792 15.3588L23.3477 16.3596L24.1477 17.7436L25.8792 16.7428ZM52.2946 61.3034C51.9986 61.4741 51.7391 61.7015 51.531 61.9726L53.1176 63.1903C53.1656 63.1278 53.2255 63.0753 53.2938 63.0359L52.2946 61.3034ZM53.2556 60.9777C52.917 61.0221 52.5905 61.1328 52.2946 61.3034L53.2937 63.0359C53.362 62.9966 53.4374 62.971 53.5155 62.9608L53.2556 60.9777ZM54.2681 61.0447C53.9382 60.9561 53.5942 60.9334 53.2556 60.9777L53.5155 62.9608C53.5936 62.9505 53.673 62.9558 53.7491 62.9762L54.2681 61.0447ZM55.1778 61.4942C54.907 61.286 54.5979 61.1333 54.2681 61.0447L53.7491 62.9762C53.8253 62.9967 53.8966 63.0319 53.9591 63.0799L55.1778 61.4942ZM55.8462 62.2576C55.6757 61.9617 55.4486 61.7023 55.1778 61.4942L53.9591 63.08C54.0215 63.128 54.074 63.1878 54.1133 63.2561L55.8462 62.2576ZM56.6458 63.6424L55.8458 62.2568L54.1137 63.2568L54.9137 64.6424L56.6458 63.6424ZM56.898 65.6145C57.0779 64.9519 56.9884 64.245 56.6491 63.6482L54.9104 64.6367C54.9887 64.7744 55.0094 64.9375 54.9679 65.0904L56.898 65.6145ZM55.6889 67.1849C56.2835 66.8416 56.7181 66.2771 56.898 65.6145L54.9679 65.0904C54.9264 65.2433 54.8261 65.3736 54.6888 65.4528L55.6889 67.1849ZM53.7243 67.4469C54.3881 67.6224 55.0943 67.5282 55.6889 67.1849L54.6889 65.4528C54.5516 65.5321 54.3887 65.5538 54.2355 65.5133L53.7243 67.4469ZM52.1459 66.2482C52.4931 66.8405 53.0605 67.2714 53.7243 67.4469L54.2355 65.5133C54.0823 65.4728 53.9514 65.3734 53.8713 65.2367L52.1459 66.2482ZM51.3426 64.8568L52.1425 66.2424L53.8746 65.2424L53.0746 63.8568L51.3426 64.8568ZM51.016 63.8964C51.0607 64.2351 51.1719 64.5618 51.343 64.8576L53.0742 63.8561C53.0347 63.7878 53.009 63.7125 52.9987 63.6343L51.016 63.8964ZM51.082 62.8832C50.9936 63.2133 50.9712 63.5576 51.016 63.8964L52.9987 63.6343C52.9884 63.5561 52.9935 63.4766 53.0139 63.4005L51.082 62.8832ZM51.531 61.9726C51.323 62.2437 51.1704 62.5531 51.082 62.8832L53.0139 63.4005C53.0343 63.3243 53.0695 63.2529 53.1176 63.1903L51.531 61.9726ZM64.6402 54.9199L63.2562 54.1199L62.2553 55.8514L63.6393 56.6514L64.6402 54.9199ZM64.8677 54.9998C64.7893 54.9891 64.7138 54.963 64.6455 54.923L63.634 56.6484C63.9298 56.8218 64.257 56.935 64.5968 56.9814L64.8677 54.9998ZM65.1023 54.9855C65.0258 55.0057 64.9461 55.0106 64.8677 54.9999L64.5967 56.9814C64.9365 57.0279 65.282 57.0067 65.6135 56.919L65.1023 54.9855ZM65.3134 54.882C65.2506 54.9301 65.1788 54.9652 65.1023 54.9855L65.6135 56.919C65.945 56.8314 66.2559 56.679 66.5283 56.4707L65.3134 54.882ZM65.4686 54.7054C65.429 54.7739 65.3763 54.8339 65.3134 54.882L66.5283 56.4707C66.8007 56.2625 67.0292 56.0024 67.2006 55.7054L65.4686 54.7054ZM65.544 54.4827C65.5338 54.5612 65.5081 54.6369 65.4686 54.7054L67.2006 55.7054C67.3721 55.4084 67.4831 55.0805 67.5273 54.7405L65.544 54.4827ZM65.528 54.2482C65.5487 54.3245 65.5542 54.4042 65.544 54.4827L67.5273 54.7405C67.5715 54.4005 67.548 54.0551 67.4581 53.7242L65.528 54.2482ZM65.4232 54.0378C65.4716 54.1003 65.5073 54.1718 65.528 54.2482L67.4581 53.7242C67.3683 53.3932 67.2139 53.0834 67.0038 52.8124L65.4232 54.0378ZM65.2455 53.8838C65.3143 53.9229 65.3747 53.9752 65.4232 54.0378L67.0038 52.8124C66.7937 52.5414 66.5321 52.3146 66.2341 52.1452L65.2455 53.8838ZM63.8553 53.0802L65.2393 53.8802L66.2402 52.1487L64.8562 51.3487L63.8553 53.0802ZM63.4078 53.0263C63.5607 52.9848 63.7238 53.0055 63.8615 53.0838L64.85 51.3452C64.2532 51.0058 63.5463 50.9163 62.8837 51.0962L63.4078 53.0263ZM63.0454 53.3054C63.1246 53.1681 63.2549 53.0678 63.4078 53.0263L62.8838 51.0962C62.2211 51.2761 61.6566 51.7108 61.3133 52.3053L63.0454 53.3054ZM62.9849 53.7587C62.9444 53.6056 62.9661 53.4426 63.0454 53.3054L61.3133 52.3054C60.97 52.8999 60.8758 53.6062 61.0513 54.2699L62.9849 53.7587ZM63.2615 54.123C63.1248 54.0429 63.0254 53.9119 62.9849 53.7587L61.0513 54.2699C61.2268 54.9337 61.6577 55.5011 62.25 55.8484L63.2615 54.123ZM17.7426 24.1487L16.3586 23.3487L15.3577 25.0802L16.7417 25.8802L17.7426 24.1487ZM18.9466 25.7302C18.7711 25.0664 18.3402 24.499 17.7479 24.1518L16.7364 25.8771C16.8731 25.9573 16.9725 26.0882 17.013 26.2414L18.9466 25.7302ZM18.6846 27.6948C19.0279 27.1002 19.1221 26.394 18.9466 25.7302L17.013 26.2414C17.0535 26.3946 17.0318 26.5576 16.9526 26.6948L18.6846 27.6948ZM17.1142 28.9039C17.7768 28.724 18.3413 28.2894 18.6846 27.6948L16.9526 26.6948C16.8734 26.832 16.7431 26.9323 16.5902 26.9738L17.1142 28.9039ZM15.1479 28.655C15.7448 28.9943 16.4516 29.0838 17.1142 28.9039L16.5902 26.9738C16.4373 27.0153 16.2742 26.9947 16.1364 26.9163L15.1479 28.655ZM13.7577 27.8514L15.1417 28.6514L16.1426 26.9199L14.7586 26.1199L13.7577 27.8514ZM12.5537 26.2699C12.7292 26.9337 13.1601 27.5011 13.7524 27.8483L14.7639 26.123C14.6272 26.0428 14.5278 25.9119 14.4873 25.7587L12.5537 26.2699ZM12.8157 24.3053C12.4724 24.8999 12.3782 25.6062 12.5537 26.2699L14.4873 25.7587C14.4468 25.6056 14.4685 25.4426 14.5477 25.3054L12.8157 24.3053ZM14.3861 23.0962C13.7235 23.2761 13.159 23.7108 12.8157 24.3053L14.5477 25.3054C14.627 25.1682 14.7572 25.0678 14.9101 25.0263L14.3861 23.0962ZM16.3524 23.3451C15.7556 23.0058 15.0487 22.9163 14.3861 23.0962L14.9101 25.0263C15.063 24.9848 15.2262 25.0055 15.3639 25.0838L16.3524 23.3451ZM25.7495 65.5219C25.5958 65.5631 25.432 65.5416 25.2942 65.462L24.2942 67.1941C24.8914 67.5388 25.6011 67.6323 26.2671 67.4538L25.7495 65.5219ZM26.1138 65.2424C26.0342 65.3802 25.9032 65.4808 25.7495 65.5219L26.2671 67.4538C26.9332 67.2753 27.501 66.8396 27.8458 66.2425L26.1138 65.2424ZM26.9138 63.8568L26.1138 65.2424L27.8458 66.2424L28.6458 64.8568L26.9138 63.8568ZM26.994 63.6289C26.9833 63.7073 26.9572 63.7828 26.9171 63.8511L28.6425 64.8626C28.8159 64.5668 28.9291 64.2396 28.9756 63.8999L26.994 63.6289ZM26.9796 63.3943C26.9998 63.4708 27.0047 63.5505 26.994 63.6289L28.9756 63.8999C29.022 63.5601 29.0008 63.2146 28.9132 62.8831L26.9796 63.3943ZM26.8761 63.1832C26.9242 63.246 26.9594 63.3178 26.9796 63.3943L28.9132 62.8831C28.8255 62.5516 28.6732 62.2407 28.4649 61.9683L26.8761 63.1832ZM26.6995 63.028C26.7681 63.0676 26.8281 63.1203 26.8762 63.1832L28.4649 61.9683C28.2566 61.6959 27.9965 61.4674 27.6995 61.296L26.6995 63.028ZM26.4769 62.9526C26.5553 62.9628 26.631 62.9885 26.6995 63.028L27.6996 61.296C27.4026 61.1245 27.0747 61.0135 26.7347 60.9693L26.4769 62.9526ZM26.2423 62.9686C26.3187 62.9479 26.3984 62.9424 26.4769 62.9526L26.7347 60.9693C26.3946 60.9251 26.0492 60.9486 25.7183 61.0385L26.2423 62.9686ZM26.0319 63.0734C26.0944 63.025 26.166 62.9893 26.2423 62.9686L25.7183 61.0385C25.3874 61.1283 25.0775 61.2827 24.8065 61.4928L26.0319 63.0734ZM25.8779 63.2511C25.917 63.1823 25.9694 63.1219 26.0319 63.0734L24.8065 61.4928C24.5355 61.7029 24.3088 61.9645 24.1393 62.2626L25.8779 63.2511ZM25.0746 64.6424L25.8746 63.2568L24.1426 62.2568L23.3426 63.6424L25.0746 64.6424ZM25.0147 65.0977C24.9735 64.944 24.9951 64.7802 25.0747 64.6424L23.3426 63.6424C22.9978 64.2396 22.9044 64.9493 23.0829 65.6153L25.0147 65.0977ZM25.2943 65.462C25.1565 65.3825 25.0559 65.2514 25.0147 65.0977L23.0829 65.6153C23.2613 66.2814 23.697 66.8492 24.2942 67.194L25.2943 65.462ZM55.6941 12.8076C55.097 12.4628 54.3873 12.3694 53.7212 12.5478L54.2389 14.4797C54.3926 14.4385 54.5563 14.4601 54.6941 14.5396L55.6941 12.8076ZM56.9055 14.3863C56.727 13.7202 56.2913 13.1524 55.6942 12.8076L54.6941 14.5396C54.8319 14.6192 54.9325 14.7502 54.9736 14.9039L56.9055 14.3863ZM56.6458 16.3592C56.9905 15.762 57.084 15.0524 56.9055 14.3863L54.9736 14.9039C55.0148 15.0576 54.9933 15.2214 54.9137 15.3592L56.6458 16.3592ZM55.8455 17.7436L56.6455 16.3596L54.914 15.3587L54.114 16.7427L55.8455 17.7436ZM55.1818 18.5072C55.4528 18.2971 55.6796 18.0355 55.849 17.7374L54.1104 16.7489C54.0713 16.8177 54.019 16.8781 53.9565 16.9266L55.1818 18.5072ZM54.2701 18.9615C54.601 18.8717 54.9108 18.7173 55.1818 18.5072L53.9564 16.9266C53.8939 16.975 53.8224 17.0107 53.746 17.0314L54.2701 18.9615ZM53.2537 19.0307C53.5937 19.0749 53.9391 19.0514 54.2701 18.9615L53.746 17.0314C53.6697 17.0521 53.59 17.0576 53.5115 17.0474L53.2537 19.0307ZM52.2888 18.704C52.5858 18.8755 52.9137 18.9865 53.2537 19.0307L53.5115 17.0474C53.433 17.0372 53.3573 17.0115 53.2888 16.972L52.2888 18.704ZM51.5235 18.0317C51.7318 18.3041 51.9919 18.5326 52.2888 18.704L53.2888 16.972C53.2203 16.9324 53.1603 16.8797 53.1122 16.8168L51.5235 18.0317ZM51.0752 17.1169C51.1628 17.4484 51.3152 17.7593 51.5235 18.0317L53.1122 16.8168C53.0641 16.754 53.029 16.6822 53.0088 16.6057L51.0752 17.1169ZM51.0128 16.1001C50.9663 16.4399 50.9876 16.7854 51.0752 17.1169L53.0088 16.6057C52.9885 16.5292 52.9836 16.4495 52.9944 16.3711L51.0128 16.1001ZM51.3459 15.1374C51.1724 15.4332 51.0592 15.7604 51.0128 16.1002L52.9944 16.3711C53.0051 16.2927 53.0312 16.2172 53.0712 16.1489L51.3459 15.1374ZM52.1428 13.7587L51.3428 15.1427L53.0743 16.1436L53.8743 14.7596L52.1428 13.7587ZM53.7213 12.5478C53.0552 12.7263 52.4873 13.162 52.1425 13.7592L53.8745 14.7592C53.9541 14.6214 54.0852 14.5209 54.2389 14.4797L53.7213 12.5478Z" fill="white" mask="url(#path-4-inside-1)"/>
    </symbol>

</svg>