<svg width="16" height="12" viewBox="0 0 16 12" fill="none" xmlns="http://www.w3.org/2000/svg">
    <path d="M15.894 5.52515C14.1545 1.84969 11.525 0 8 0C4.47319 0 1.84551 1.84969 0.105961 5.52699C0.0361868 5.67518 0 5.83704 0 6.00092C0 6.1648 0.0361868 6.32666 0.105961 6.47485C1.84551 10.1503 4.47502 12 8 12C11.5268 12 14.1545 10.1503 15.894 6.47301C16.0353 6.17485 16.0353 5.82883 15.894 5.52515ZM8 11C5.04019 11 2.52853 9.17025 1 6.00092C2.52853 2.8316 5.04019 1 8 1C10.9598 1 13.4715 2.83067 15 6C13.4733 9.16932 10.9616 11 8 11ZM8 3C6.21641 3 5 4.21104 5 6C5 7.78896 6.21641 9 8 9C9.78359 9 11 7.78896 11 6C11 4.21104 9.78359 3 8 3ZM8 8C6.86415 8 6 7.14018 6 6.00092C6 4.86166 6.79075 3.93865 7.9266 3.93865C9.06244 3.93865 9.98176 4.86074 9.98176 6C9.98176 7.13926 9.13584 8 8 8Z" fill="#41B64B"/>
</svg>
